<svg xmlns="http://www.w3.org/2000/svg"
     xmlns:xlink="http://www.w3.org/1999/xlink"
     viewBox="0 0 900 260" width="900" height="260"
     style="border-radius:12px;overflow:hidden;background:#0f1c2e">
  <defs>
    <!-- Glow filter for neon electric pulses and LEDs -->
    <filter id="neon-glow" x="-20%" y="-20%" width="140%" height="140%">
      <feGaussianBlur in="SourceGraphic" stdDeviation="2.5" result="blur"/>
      <feMerge>
        <feMergeNode in="blur"/>
        <feMergeNode in="SourceGraphic"/>
      </feMerge>
    </filter>
    <linearGradient id="pcb-shading" x1="0" y1="0" x2="0" y2="1">
      <stop offset="0%" stop-color="rgba(255,255,255,0.03)"/>
      <stop offset="100%" stop-color="rgba(0,0,0,0.4)"/>
    </linearGradient>
  </defs>

  <!-- PCB shading overlay -->
  <rect width="900" height="260" fill="url(#pcb-shading)"/>

  <!-- PCB Grid texture -->
  <line x1="40" y1="0" x2="40" y2="260" stroke="rgba(255,255,255,0.015)" stroke-width="1"/>
  <line x1="80" y1="0" x2="80" y2="260" stroke="rgba(255,255,255,0.015)" stroke-width="1"/>
  <line x1="120" y1="0" x2="120" y2="260" stroke="rgba(255,255,255,0.015)" stroke-width="1"/>
  <line x1="160" y1="0" x2="160" y2="260" stroke="rgba(255,255,255,0.015)" stroke-width="1"/>
  <line x1="200" y1="0" x2="200" y2="260" stroke="rgba(255,255,255,0.015)" stroke-width="1"/>
  <line x1="240" y1="0" x2="240" y2="260" stroke="rgba(255,255,255,0.015)" stroke-width="1"/>
  <line x1="280" y1="0" x2="280" y2="260" stroke="rgba(255,255,255,0.015)" stroke-width="1"/>
  <line x1="320" y1="0" x2="320" y2="260" stroke="rgba(255,255,255,0.015)" stroke-width="1"/>
  <line x1="360" y1="0" x2="360" y2="260" stroke="rgba(255,255,255,0.015)" stroke-width="1"/>
  <line x1="400" y1="0" x2="400" y2="260" stroke="rgba(255,255,255,0.015)" stroke-width="1"/>
  <line x1="440" y1="0" x2="440" y2="260" stroke="rgba(255,255,255,0.015)" stroke-width="1"/>
  <line x1="480" y1="0" x2="480" y2="260" stroke="rgba(255,255,255,0.015)" stroke-width="1"/>
  <line x1="520" y1="0" x2="520" y2="260" stroke="rgba(255,255,255,0.015)" stroke-width="1"/>
  <line x1="560" y1="0" x2="560" y2="260" stroke="rgba(255,255,255,0.015)" stroke-width="1"/>
  <line x1="600" y1="0" x2="600" y2="260" stroke="rgba(255,255,255,0.015)" stroke-width="1"/>
  <line x1="640" y1="0" x2="640" y2="260" stroke="rgba(255,255,255,0.015)" stroke-width="1"/>
  <line x1="680" y1="0" x2="680" y2="260" stroke="rgba(255,255,255,0.015)" stroke-width="1"/>
  <line x1="720" y1="0" x2="720" y2="260" stroke="rgba(255,255,255,0.015)" stroke-width="1"/>
  <line x1="760" y1="0" x2="760" y2="260" stroke="rgba(255,255,255,0.015)" stroke-width="1"/>
  <line x1="800" y1="0" x2="800" y2="260" stroke="rgba(255,255,255,0.015)" stroke-width="1"/>
  <line x1="840" y1="0" x2="840" y2="260" stroke="rgba(255,255,255,0.015)" stroke-width="1"/>
  <line x1="880" y1="0" x2="880" y2="260" stroke="rgba(255,255,255,0.015)" stroke-width="1"/>
  <line x1="0" y1="30" x2="900" y2="30" stroke="rgba(255,255,255,0.015)" stroke-width="1"/>
  <line x1="0" y1="60" x2="900" y2="60" stroke="rgba(255,255,255,0.015)" stroke-width="1"/>
  <line x1="0" y1="90" x2="900" y2="90" stroke="rgba(255,255,255,0.015)" stroke-width="1"/>
  <line x1="0" y1="120" x2="900" y2="120" stroke="rgba(255,255,255,0.015)" stroke-width="1"/>
  <line x1="0" y1="150" x2="900" y2="150" stroke="rgba(255,255,255,0.015)" stroke-width="1"/>
  <line x1="0" y1="180" x2="900" y2="180" stroke="rgba(255,255,255,0.015)" stroke-width="1"/>
  <line x1="0" y1="210" x2="900" y2="210" stroke="rgba(255,255,255,0.015)" stroke-width="1"/>
  <line x1="0" y1="240" x2="900" y2="240" stroke="rgba(255,255,255,0.015)" stroke-width="1"/>

  <!-- Board circular vias/mounts in corners -->
  <circle cx="20" cy="20" r="8" fill="none" stroke="#1b324f" stroke-width="2"/>
  <circle cx="20" cy="20" r="4" fill="#0f1c2e" stroke="#1b324f" stroke-width="1"/>
  <circle cx="880" cy="20" r="8" fill="none" stroke="#1b324f" stroke-width="2"/>
  <circle cx="880" cy="20" r="4" fill="#0f1c2e" stroke="#1b324f" stroke-width="1"/>

  <!-- Main bus line track -->
  <line x1="10" y1="190" x2="890" y2="190" stroke="#1b324f" stroke-width="3" stroke-linecap="round"/>

  <!-- Base Trace Lines (un-pulsed background paths) -->
  <polyline points="244,178 294,178 334,208 414,208" fill="none" stroke="#1b324f" stroke-width="1.5" stroke-linecap="round" stroke-linejoin="round"/>
  <polyline points="438,166 488,166 528,196 608,196" fill="none" stroke="#1b324f" stroke-width="1.5" stroke-linecap="round" stroke-linejoin="round"/>
  <polyline points="632,154 682,154 722,184 802,184" fill="none" stroke="#1b324f" stroke-width="1.5" stroke-linecap="round" stroke-linejoin="round"/>
  <polyline points="826,142 876,142 916,172 996,172" fill="none" stroke="#1b324f" stroke-width="1.5" stroke-linecap="round" stroke-linejoin="round"/>
  <polyline points="220,130 270,130 310,160 390,160" fill="none" stroke="#1b324f" stroke-width="1.5" stroke-linecap="round" stroke-linejoin="round"/>
  <polyline points="414,118 464,118 504,148 584,148" fill="none" stroke="#1b324f" stroke-width="1.5" stroke-linecap="round" stroke-linejoin="round"/>
  <polyline points="608,106 658,106 698,136 778,136" fill="none" stroke="#1b324f" stroke-width="1.5" stroke-linecap="round" stroke-linejoin="round"/>
  <polyline points="802,94 852,94 892,124 972,124" fill="none" stroke="#1b324f" stroke-width="1.5" stroke-linecap="round" stroke-linejoin="round"/>
  <polyline points="196,82 246,82 286,112 366,112" fill="none" stroke="#1b324f" stroke-width="1.5" stroke-linecap="round" stroke-linejoin="round"/>
  <polyline points="390,70 440,70 480,100 560,100" fill="none" stroke="#1b324f" stroke-width="1.5" stroke-linecap="round" stroke-linejoin="round"/>
  <polyline points="584,58 634,58 674,88 754,88" fill="none" stroke="#1b324f" stroke-width="1.5" stroke-linecap="round" stroke-linejoin="round"/>
  <polyline points="778,46 828,46 868,76 948,76" fill="none" stroke="#1b324f" stroke-width="1.5" stroke-linecap="round" stroke-linejoin="round"/>
  <polyline points="172,184 222,184 262,214 342,214" fill="none" stroke="#1b324f" stroke-width="1.5" stroke-linecap="round" stroke-linejoin="round"/>
  <polyline points="366,172 416,172 456,202 536,202" fill="none" stroke="#1b324f" stroke-width="1.5" stroke-linecap="round" stroke-linejoin="round"/>
  <polyline points="560,160 610,160 650,190 730,190" fill="none" stroke="#1b324f" stroke-width="1.5" stroke-linecap="round" stroke-linejoin="round"/>

  <!-- Active Neon Pulsing Traces -->
  
    <polyline class="pulse-trace" points="244,178 294,178 334,208 414,208" fill="none" 
      stroke="#00d2ff" stroke-width="1.5" stroke-linecap="round" stroke-linejoin="round"
      filter="url(#neon-glow)"
      style="animation-duration:7.614393726401688s; animation-delay:0s"/>
  
  
    <polyline class="pulse-trace" points="438,166 488,166 528,196 608,196" fill="none" 
      stroke="#00d2ff" stroke-width="1.5" stroke-linecap="round" stroke-linejoin="round"
      filter="url(#neon-glow)"
      style="animation-duration:7.614393726401688s; animation-delay:0.5s"/>
  
  
    <polyline class="pulse-trace" points="632,154 682,154 722,184 802,184" fill="none" 
      stroke="#00d2ff" stroke-width="1.5" stroke-linecap="round" stroke-linejoin="round"
      filter="url(#neon-glow)"
      style="animation-duration:7.614393726401688s; animation-delay:1s"/>
  
  
    <polyline class="pulse-trace" points="826,142 876,142 916,172 996,172" fill="none" 
      stroke="#00d2ff" stroke-width="1.5" stroke-linecap="round" stroke-linejoin="round"
      filter="url(#neon-glow)"
      style="animation-duration:7.614393726401688s; animation-delay:1.5s"/>
  
  
    <polyline class="pulse-trace" points="220,130 270,130 310,160 390,160" fill="none" 
      stroke="#00d2ff" stroke-width="1.5" stroke-linecap="round" stroke-linejoin="round"
      filter="url(#neon-glow)"
      style="animation-duration:7.614393726401688s; animation-delay:2s"/>
  
  
    <polyline class="pulse-trace" points="414,118 464,118 504,148 584,148" fill="none" 
      stroke="#00d2ff" stroke-width="1.5" stroke-linecap="round" stroke-linejoin="round"
      filter="url(#neon-glow)"
      style="animation-duration:7.614393726401688s; animation-delay:2.5s"/>
  
  
    <polyline class="pulse-trace" points="608,106 658,106 698,136 778,136" fill="none" 
      stroke="#00d2ff" stroke-width="1.5" stroke-linecap="round" stroke-linejoin="round"
      filter="url(#neon-glow)"
      style="animation-duration:7.614393726401688s; animation-delay:3s"/>
  
  
    <polyline class="pulse-trace" points="802,94 852,94 892,124 972,124" fill="none" 
      stroke="#00d2ff" stroke-width="1.5" stroke-linecap="round" stroke-linejoin="round"
      filter="url(#neon-glow)"
      style="animation-duration:7.614393726401688s; animation-delay:3.5s"/>
  
  
    <polyline class="pulse-trace" points="196,82 246,82 286,112 366,112" fill="none" 
      stroke="#00d2ff" stroke-width="1.5" stroke-linecap="round" stroke-linejoin="round"
      filter="url(#neon-glow)"
      style="animation-duration:7.614393726401688s; animation-delay:0s"/>
  
  
    <polyline class="pulse-trace" points="390,70 440,70 480,100 560,100" fill="none" 
      stroke="#00d2ff" stroke-width="1.5" stroke-linecap="round" stroke-linejoin="round"
      filter="url(#neon-glow)"
      style="animation-duration:7.614393726401688s; animation-delay:0.5s"/>
  
  
    <polyline class="pulse-trace" points="584,58 634,58 674,88 754,88" fill="none" 
      stroke="#00d2ff" stroke-width="1.5" stroke-linecap="round" stroke-linejoin="round"
      filter="url(#neon-glow)"
      style="animation-duration:7.614393726401688s; animation-delay:1s"/>
  
  
    <polyline class="pulse-trace" points="778,46 828,46 868,76 948,76" fill="none" 
      stroke="#00d2ff" stroke-width="1.5" stroke-linecap="round" stroke-linejoin="round"
      filter="url(#neon-glow)"
      style="animation-duration:7.614393726401688s; animation-delay:1.5s"/>
  
  
    <polyline class="pulse-trace" points="172,184 222,184 262,214 342,214" fill="none" 
      stroke="#00d2ff" stroke-width="1.5" stroke-linecap="round" stroke-linejoin="round"
      filter="url(#neon-glow)"
      style="animation-duration:7.614393726401688s; animation-delay:2s"/>
  
  
    <polyline class="pulse-trace" points="366,172 416,172 456,202 536,202" fill="none" 
      stroke="#00d2ff" stroke-width="1.5" stroke-linecap="round" stroke-linejoin="round"
      filter="url(#neon-glow)"
      style="animation-duration:7.614393726401688s; animation-delay:2.5s"/>
  
  
    <polyline class="pulse-trace" points="560,160 610,160 650,190 730,190" fill="none" 
      stroke="#00d2ff" stroke-width="1.5" stroke-linecap="round" stroke-linejoin="round"
      filter="url(#neon-glow)"
      style="animation-duration:7.614393726401688s; animation-delay:3s"/>
  

  <!-- Component Bridges / Ribbon Cables -->
  
    <g transform="translate(744, 86)">
      <!-- Ribbon base -->
      <rect x="0" y="0" width="68" height="10" fill="#2c3e50" rx="1"/>
      <!-- Striped wires inside ribbon -->
      <line x1="4" y1="0" x2="4" y2="10" stroke="#e74c3c" stroke-width="1.5"/>
      <line x1="10" y1="0" x2="10" y2="10" stroke="#ecf0f1" stroke-width="1.5"/>
      <line x1="16" y1="0" x2="16" y2="10" stroke="#3498db" stroke-width="1.5"/>
      <line x1="22" y1="0" x2="22" y2="10" stroke="#f1c40f" stroke-width="1.5"/>
      <line x1="28" y1="0" x2="28" y2="10" stroke="#2ecc71" stroke-width="1.5"/>
      <!-- Connector endpoints -->
      <rect x="-2" y="-2" width="6" height="14" fill="#111" rx="0.5"/>
      <rect x="64" y="-2" width="6" height="14" fill="#111" rx="0.5"/>
    </g>
  
  
    <g transform="translate(718, 92)">
      <!-- Ribbon base -->
      <rect x="0" y="0" width="66" height="10" fill="#2c3e50" rx="1"/>
      <!-- Striped wires inside ribbon -->
      <line x1="4" y1="0" x2="4" y2="10" stroke="#e74c3c" stroke-width="1.5"/>
      <line x1="10" y1="0" x2="10" y2="10" stroke="#ecf0f1" stroke-width="1.5"/>
      <line x1="16" y1="0" x2="16" y2="10" stroke="#3498db" stroke-width="1.5"/>
      <line x1="22" y1="0" x2="22" y2="10" stroke="#f1c40f" stroke-width="1.5"/>
      <line x1="28" y1="0" x2="28" y2="10" stroke="#2ecc71" stroke-width="1.5"/>
      <!-- Connector endpoints -->
      <rect x="-2" y="-2" width="6" height="14" fill="#111" rx="0.5"/>
      <rect x="62" y="-2" width="6" height="14" fill="#111" rx="0.5"/>
    </g>
  
  
    <g transform="translate(692, 98)">
      <!-- Ribbon base -->
      <rect x="0" y="0" width="64" height="10" fill="#2c3e50" rx="1"/>
      <!-- Striped wires inside ribbon -->
      <line x1="4" y1="0" x2="4" y2="10" stroke="#e74c3c" stroke-width="1.5"/>
      <line x1="10" y1="0" x2="10" y2="10" stroke="#ecf0f1" stroke-width="1.5"/>
      <line x1="16" y1="0" x2="16" y2="10" stroke="#3498db" stroke-width="1.5"/>
      <line x1="22" y1="0" x2="22" y2="10" stroke="#f1c40f" stroke-width="1.5"/>
      <line x1="28" y1="0" x2="28" y2="10" stroke="#2ecc71" stroke-width="1.5"/>
      <!-- Connector endpoints -->
      <rect x="-2" y="-2" width="6" height="14" fill="#111" rx="0.5"/>
      <rect x="60" y="-2" width="6" height="14" fill="#111" rx="0.5"/>
    </g>
  
  
    <g transform="translate(666, 104)">
      <!-- Ribbon base -->
      <rect x="0" y="0" width="62" height="10" fill="#2c3e50" rx="1"/>
      <!-- Striped wires inside ribbon -->
      <line x1="4" y1="0" x2="4" y2="10" stroke="#e74c3c" stroke-width="1.5"/>
      <line x1="10" y1="0" x2="10" y2="10" stroke="#ecf0f1" stroke-width="1.5"/>
      <line x1="16" y1="0" x2="16" y2="10" stroke="#3498db" stroke-width="1.5"/>
      <line x1="22" y1="0" x2="22" y2="10" stroke="#f1c40f" stroke-width="1.5"/>
      <line x1="28" y1="0" x2="28" y2="10" stroke="#2ecc71" stroke-width="1.5"/>
      <!-- Connector endpoints -->
      <rect x="-2" y="-2" width="6" height="14" fill="#111" rx="0.5"/>
      <rect x="58" y="-2" width="6" height="14" fill="#111" rx="0.5"/>
    </g>
  

  <!-- Mounted Components (Resistors, Chips, etc.) -->
  <g class="component"><line x1="1.5" y1="190" x2="1.5" y2="198" stroke="#bdc3c7" stroke-width="1"/><line x1="3.543956043956044" y1="190" x2="3.543956043956044" y2="198" stroke="#bdc3c7" stroke-width="1"/><line x1="5.587912087912088" y1="190" x2="5.587912087912088" y2="198" stroke="#bdc3c7" stroke-width="1"/><line x1="7.631868131868131" y1="190" x2="7.631868131868131" y2="198" stroke="#bdc3c7" stroke-width="1"/><line x1="9.675824175824175" y1="190" x2="9.675824175824175" y2="198" stroke="#bdc3c7" stroke-width="1"/><line x1="11.719780219780219" y1="190" x2="11.719780219780219" y2="198" stroke="#bdc3c7" stroke-width="1"/><line x1="13.763736263736263" y1="190" x2="13.763736263736263" y2="198" stroke="#bdc3c7" stroke-width="1"/><line x1="15.807692307692307" y1="190" x2="15.807692307692307" y2="198" stroke="#bdc3c7" stroke-width="1"/>
        <rect x="3.6538461538461533" y="198" width="10" height="49" fill="#222" rx="1" stroke="#444" stroke-width="0.5"/>
        <line x1="8.653846153846153" y1="198" x2="8.653846153846153" y2="201" stroke="#111" stroke-width="1.5"/> <!-- pin 1 notch -->
        <rect x="4.653846153846153" y="212.7" width="8" height="19.6" fill="#e67e22" opacity="0.8"/>
      
      <circle class="led" cx="8.653846153846153" cy="205.35" r="2" fill="#10ac84" filter="url(#neon-glow)"
        style="animation-delay:0.0s"/>
    </g>
  <g class="component"><line x1="18.807692307692307" y1="190" x2="18.807692307692307" y2="198" stroke="#bdc3c7" stroke-width="1"/><line x1="20.85164835164835" y1="190" x2="20.85164835164835" y2="198" stroke="#bdc3c7" stroke-width="1"/><line x1="22.895604395604394" y1="190" x2="22.895604395604394" y2="198" stroke="#bdc3c7" stroke-width="1"/><line x1="24.939560439560438" y1="190" x2="24.939560439560438" y2="198" stroke="#bdc3c7" stroke-width="1"/><line x1="26.983516483516482" y1="190" x2="26.983516483516482" y2="198" stroke="#bdc3c7" stroke-width="1"/><line x1="29.027472527472526" y1="190" x2="29.027472527472526" y2="198" stroke="#bdc3c7" stroke-width="1"/><line x1="31.07142857142857" y1="190" x2="31.07142857142857" y2="198" stroke="#bdc3c7" stroke-width="1"/><line x1="33.11538461538461" y1="190" x2="33.11538461538461" y2="198" stroke="#bdc3c7" stroke-width="1"/>
        <rect x="20.96153846153846" y="198" width="10" height="47" fill="#222" rx="1" stroke="#444" stroke-width="0.5"/>
        <line x1="25.96153846153846" y1="198" x2="25.96153846153846" y2="201" stroke="#111" stroke-width="1.5"/> <!-- pin 1 notch -->
        <rect x="21.96153846153846" y="212.1" width="8" height="18.8" fill="#e67e22" opacity="0.8"/>
      </g>
  <g class="component"><line x1="36.11538461538461" y1="190" x2="36.11538461538461" y2="198" stroke="#bdc3c7" stroke-width="1"/><line x1="43.26923076923077" y1="190" x2="43.26923076923077" y2="198" stroke="#bdc3c7" stroke-width="1"/><line x1="50.42307692307692" y1="190" x2="50.42307692307692" y2="198" stroke="#bdc3c7" stroke-width="1"/>
        <path d="M 38.26923076923077,198 L 48.26923076923077,198 L 48.26923076923077,233 C 48.26923076923077,237 38.26923076923077,237 38.26923076923077,233 Z" fill="#111" stroke="#333" stroke-width="0.5"/>
        <rect x="39.26923076923077" y="200" width="8" height="2" fill="#00d2ff"/>
      </g>
  <g class="component"><line x1="53.42307692307692" y1="190" x2="53.42307692307692" y2="198" stroke="#bdc3c7" stroke-width="1"/><line x1="67.73076923076923" y1="190" x2="67.73076923076923" y2="198" stroke="#bdc3c7" stroke-width="1"/>
        <rect x="57.57692307692307" y="198" width="6" height="30" fill="#dfb887" rx="2" stroke="#7f603c" stroke-width="0.8"/>
        <!-- Resistor Color Bands -->
        <rect x="57.57692307692307" y="204" width="6" height="2" fill="#c0392b"/>
        <rect x="57.57692307692307" y="213" width="6" height="2" fill="#f1c40f"/>
        <rect x="57.57692307692307" y="219" width="6" height="2" fill="#27ae60"/>
      </g>
  <g class="component"><line x1="70.73076923076923" y1="190" x2="70.73076923076923" y2="198" stroke="#bdc3c7" stroke-width="1"/><line x1="85.03846153846153" y1="190" x2="85.03846153846153" y2="198" stroke="#bdc3c7" stroke-width="1"/>
        <rect x="74.88461538461539" y="198" width="6" height="30" fill="#dfb887" rx="2" stroke="#7f603c" stroke-width="0.8"/>
        <!-- Resistor Color Bands -->
        <rect x="74.88461538461539" y="204" width="6" height="2" fill="#c0392b"/>
        <rect x="74.88461538461539" y="213" width="6" height="2" fill="#f1c40f"/>
        <rect x="74.88461538461539" y="219" width="6" height="2" fill="#27ae60"/>
      </g>
  
  <g class="component"><line x1="105.34615384615384" y1="190" x2="105.34615384615384" y2="198" stroke="#bdc3c7" stroke-width="1"/><line x1="107.39010989010988" y1="190" x2="107.39010989010988" y2="198" stroke="#bdc3c7" stroke-width="1"/><line x1="109.43406593406593" y1="190" x2="109.43406593406593" y2="198" stroke="#bdc3c7" stroke-width="1"/><line x1="111.47802197802197" y1="190" x2="111.47802197802197" y2="198" stroke="#bdc3c7" stroke-width="1"/><line x1="113.52197802197801" y1="190" x2="113.52197802197801" y2="198" stroke="#bdc3c7" stroke-width="1"/><line x1="115.56593406593406" y1="190" x2="115.56593406593406" y2="198" stroke="#bdc3c7" stroke-width="1"/><line x1="117.6098901098901" y1="190" x2="117.6098901098901" y2="198" stroke="#bdc3c7" stroke-width="1"/><line x1="119.65384615384615" y1="190" x2="119.65384615384615" y2="198" stroke="#bdc3c7" stroke-width="1"/>
        <rect x="107.5" y="198" width="10" height="45" fill="#222" rx="1" stroke="#444" stroke-width="0.5"/>
        <line x1="112.5" y1="198" x2="112.5" y2="201" stroke="#111" stroke-width="1.5"/> <!-- pin 1 notch -->
        <rect x="108.5" y="211.5" width="8" height="18" fill="#3498db" opacity="0.8"/>
      
      <circle class="led" cx="112.5" cy="204.75" r="2" fill="#10ac84" filter="url(#neon-glow)"
        style="animation-delay:1.8s"/>
    </g>
  
  
  
  
  <g class="component"><line x1="191.88461538461536" y1="190" x2="191.88461538461536" y2="198" stroke="#bdc3c7" stroke-width="1"/><line x1="199.03846153846152" y1="190" x2="199.03846153846152" y2="198" stroke="#bdc3c7" stroke-width="1"/><line x1="206.19230769230768" y1="190" x2="206.19230769230768" y2="198" stroke="#bdc3c7" stroke-width="1"/>
        <path d="M 194.03846153846152,198 L 204.03846153846152,198 L 204.03846153846152,233 C 204.03846153846152,237 194.03846153846152,237 194.03846153846152,233 Z" fill="#111" stroke="#333" stroke-width="0.5"/>
        <rect x="195.03846153846152" y="200" width="8" height="2" fill="#1abc9c"/>
      </g>
  <g class="component"><line x1="209.19230769230768" y1="190" x2="209.19230769230768" y2="198" stroke="#bdc3c7" stroke-width="1"/><line x1="216.34615384615384" y1="190" x2="216.34615384615384" y2="198" stroke="#bdc3c7" stroke-width="1"/><line x1="223.5" y1="190" x2="223.5" y2="198" stroke="#bdc3c7" stroke-width="1"/>
        <path d="M 211.34615384615384,198 L 221.34615384615384,198 L 221.34615384615384,237 C 221.34615384615384,241 211.34615384615384,241 211.34615384615384,237 Z" fill="#111" stroke="#333" stroke-width="0.5"/>
        <rect x="212.34615384615384" y="200" width="8" height="2" fill="#9b59b6"/>
      </g>
  <g class="component"><line x1="226.5" y1="190" x2="226.5" y2="198" stroke="#bdc3c7" stroke-width="1"/><line x1="228.54395604395603" y1="190" x2="228.54395604395603" y2="198" stroke="#bdc3c7" stroke-width="1"/><line x1="230.5879120879121" y1="190" x2="230.5879120879121" y2="198" stroke="#bdc3c7" stroke-width="1"/><line x1="232.63186813186815" y1="190" x2="232.63186813186815" y2="198" stroke="#bdc3c7" stroke-width="1"/><line x1="234.67582417582418" y1="190" x2="234.67582417582418" y2="198" stroke="#bdc3c7" stroke-width="1"/><line x1="236.7197802197802" y1="190" x2="236.7197802197802" y2="198" stroke="#bdc3c7" stroke-width="1"/><line x1="238.76373626373626" y1="190" x2="238.76373626373626" y2="198" stroke="#bdc3c7" stroke-width="1"/><line x1="240.80769230769232" y1="190" x2="240.80769230769232" y2="198" stroke="#bdc3c7" stroke-width="1"/>
        <rect x="228.65384615384616" y="198" width="10" height="45" fill="#222" rx="1" stroke="#444" stroke-width="0.5"/>
        <line x1="233.65384615384616" y1="198" x2="233.65384615384616" y2="201" stroke="#111" stroke-width="1.5"/> <!-- pin 1 notch -->
        <rect x="229.65384615384616" y="211.5" width="8" height="18" fill="#1abc9c" opacity="0.8"/>
      </g>
  <g class="component"><line x1="243.8076923076923" y1="190" x2="243.8076923076923" y2="198" stroke="#bdc3c7" stroke-width="1"/><line x1="258.1153846153846" y1="190" x2="258.1153846153846" y2="198" stroke="#bdc3c7" stroke-width="1"/>
        <rect x="247.96153846153845" y="198" width="6" height="22" fill="#dfb887" rx="2" stroke="#7f603c" stroke-width="0.8"/>
        <!-- Resistor Color Bands -->
        <rect x="247.96153846153845" y="202.4" width="6" height="2" fill="#c0392b"/>
        <rect x="247.96153846153845" y="209" width="6" height="2" fill="#f1c40f"/>
        <rect x="247.96153846153845" y="213.4" width="6" height="2" fill="#27ae60"/>
      </g>
  
  
  
  
  
  
  
  
  
  <g class="component"><line x1="416.88461538461536" y1="190" x2="416.88461538461536" y2="198" stroke="#bdc3c7" stroke-width="1"/><line x1="431.1923076923077" y1="190" x2="431.1923076923077" y2="198" stroke="#bdc3c7" stroke-width="1"/>
        <rect x="421.0384615384615" y="198" width="6" height="22" fill="#dfb887" rx="2" stroke="#7f603c" stroke-width="0.8"/>
        <!-- Resistor Color Bands -->
        <rect x="421.0384615384615" y="202.4" width="6" height="2" fill="#c0392b"/>
        <rect x="421.0384615384615" y="209" width="6" height="2" fill="#f1c40f"/>
        <rect x="421.0384615384615" y="213.4" width="6" height="2" fill="#27ae60"/>
      </g>
  <g class="component"><line x1="434.1923076923077" y1="190" x2="434.1923076923077" y2="198" stroke="#bdc3c7" stroke-width="1"/><line x1="448.5" y1="190" x2="448.5" y2="198" stroke="#bdc3c7" stroke-width="1"/>
        <rect x="438.3461538461538" y="198" width="6" height="30" fill="#dfb887" rx="2" stroke="#7f603c" stroke-width="0.8"/>
        <!-- Resistor Color Bands -->
        <rect x="438.3461538461538" y="204" width="6" height="2" fill="#c0392b"/>
        <rect x="438.3461538461538" y="213" width="6" height="2" fill="#f1c40f"/>
        <rect x="438.3461538461538" y="219" width="6" height="2" fill="#27ae60"/>
      </g>
  
  
  
  
  
  
  
  
  <g class="component"><line x1="589.9615384615385" y1="190" x2="589.9615384615385" y2="198" stroke="#bdc3c7" stroke-width="1"/><line x1="597.1153846153846" y1="190" x2="597.1153846153846" y2="198" stroke="#bdc3c7" stroke-width="1"/><line x1="604.2692307692307" y1="190" x2="604.2692307692307" y2="198" stroke="#bdc3c7" stroke-width="1"/>
        <path d="M 592.1153846153846,198 L 602.1153846153846,198 L 602.1153846153846,233 C 602.1153846153846,237 592.1153846153846,237 592.1153846153846,233 Z" fill="#111" stroke="#333" stroke-width="0.5"/>
        <rect x="593.1153846153846" y="200" width="8" height="2" fill="#3498db"/>
      </g>
  <g class="component"><line x1="607.2692307692307" y1="190" x2="607.2692307692307" y2="198" stroke="#bdc3c7" stroke-width="1"/><line x1="609.3131868131868" y1="190" x2="609.3131868131868" y2="198" stroke="#bdc3c7" stroke-width="1"/><line x1="611.3571428571428" y1="190" x2="611.3571428571428" y2="198" stroke="#bdc3c7" stroke-width="1"/><line x1="613.4010989010989" y1="190" x2="613.4010989010989" y2="198" stroke="#bdc3c7" stroke-width="1"/><line x1="615.4450549450548" y1="190" x2="615.4450549450548" y2="198" stroke="#bdc3c7" stroke-width="1"/><line x1="617.4890109890109" y1="190" x2="617.4890109890109" y2="198" stroke="#bdc3c7" stroke-width="1"/><line x1="619.532967032967" y1="190" x2="619.532967032967" y2="198" stroke="#bdc3c7" stroke-width="1"/><line x1="621.576923076923" y1="190" x2="621.576923076923" y2="198" stroke="#bdc3c7" stroke-width="1"/>
        <rect x="609.4230769230769" y="198" width="10" height="42" fill="#222" rx="1" stroke="#444" stroke-width="0.5"/>
        <line x1="614.4230769230769" y1="198" x2="614.4230769230769" y2="201" stroke="#111" stroke-width="1.5"/> <!-- pin 1 notch -->
        <rect x="610.4230769230769" y="210.6" width="8" height="16.8" fill="#00d2ff" opacity="0.8"/>
      </g>
  <g class="component"><line x1="624.5769230769231" y1="190" x2="624.5769230769231" y2="198" stroke="#bdc3c7" stroke-width="1"/><line x1="638.8846153846154" y1="190" x2="638.8846153846154" y2="198" stroke="#bdc3c7" stroke-width="1"/>
        <rect x="628.7307692307693" y="198" width="6" height="22" fill="#dfb887" rx="2" stroke="#7f603c" stroke-width="0.8"/>
        <!-- Resistor Color Bands -->
        <rect x="628.7307692307693" y="202.4" width="6" height="2" fill="#c0392b"/>
        <rect x="628.7307692307693" y="209" width="6" height="2" fill="#f1c40f"/>
        <rect x="628.7307692307693" y="213.4" width="6" height="2" fill="#27ae60"/>
      </g>
  <g class="component"><line x1="641.8846153846154" y1="190" x2="641.8846153846154" y2="198" stroke="#bdc3c7" stroke-width="1"/><line x1="643.1853146853147" y1="190" x2="643.1853146853147" y2="198" stroke="#bdc3c7" stroke-width="1"/><line x1="644.486013986014" y1="190" x2="644.486013986014" y2="198" stroke="#bdc3c7" stroke-width="1"/><line x1="645.7867132867133" y1="190" x2="645.7867132867133" y2="198" stroke="#bdc3c7" stroke-width="1"/><line x1="647.0874125874126" y1="190" x2="647.0874125874126" y2="198" stroke="#bdc3c7" stroke-width="1"/><line x1="648.3881118881119" y1="190" x2="648.3881118881119" y2="198" stroke="#bdc3c7" stroke-width="1"/><line x1="649.6888111888112" y1="190" x2="649.6888111888112" y2="198" stroke="#bdc3c7" stroke-width="1"/><line x1="650.9895104895105" y1="190" x2="650.9895104895105" y2="198" stroke="#bdc3c7" stroke-width="1"/><line x1="652.2902097902098" y1="190" x2="652.2902097902098" y2="198" stroke="#bdc3c7" stroke-width="1"/><line x1="653.590909090909" y1="190" x2="653.590909090909" y2="198" stroke="#bdc3c7" stroke-width="1"/><line x1="654.8916083916083" y1="190" x2="654.8916083916083" y2="198" stroke="#bdc3c7" stroke-width="1"/><line x1="656.1923076923076" y1="190" x2="656.1923076923076" y2="198" stroke="#bdc3c7" stroke-width="1"/>
        <rect x="642.0384615384615" y="198" width="14" height="59" fill="#1b1c1e" rx="1.5" stroke="#34495e" stroke-width="0.8"/>
        <rect x="644.0384615384615" y="200" width="10" height="55" fill="#0d0e0f" rx="1"/>
        <!-- Core silicon dye -->
        <rect x="647.0384615384615" y="221.6" width="4" height="6" fill="#9b59b6" filter="url(#neon-glow)"/>
      
      <circle class="led" cx="649.0384615384615" cy="206.85" r="2" fill="#10ac84" filter="url(#neon-glow)"
        style="animation-delay:1.1s"/>
    </g>
  <g class="component"><line x1="659.1923076923076" y1="190" x2="659.1923076923076" y2="198" stroke="#bdc3c7" stroke-width="1"/><line x1="660.4930069930069" y1="190" x2="660.4930069930069" y2="198" stroke="#bdc3c7" stroke-width="1"/><line x1="661.7937062937062" y1="190" x2="661.7937062937062" y2="198" stroke="#bdc3c7" stroke-width="1"/><line x1="663.0944055944055" y1="190" x2="663.0944055944055" y2="198" stroke="#bdc3c7" stroke-width="1"/><line x1="664.3951048951049" y1="190" x2="664.3951048951049" y2="198" stroke="#bdc3c7" stroke-width="1"/><line x1="665.6958041958042" y1="190" x2="665.6958041958042" y2="198" stroke="#bdc3c7" stroke-width="1"/><line x1="666.9965034965035" y1="190" x2="666.9965034965035" y2="198" stroke="#bdc3c7" stroke-width="1"/><line x1="668.2972027972028" y1="190" x2="668.2972027972028" y2="198" stroke="#bdc3c7" stroke-width="1"/><line x1="669.5979020979021" y1="190" x2="669.5979020979021" y2="198" stroke="#bdc3c7" stroke-width="1"/><line x1="670.8986013986013" y1="190" x2="670.8986013986013" y2="198" stroke="#bdc3c7" stroke-width="1"/><line x1="672.1993006993006" y1="190" x2="672.1993006993006" y2="198" stroke="#bdc3c7" stroke-width="1"/><line x1="673.4999999999999" y1="190" x2="673.4999999999999" y2="198" stroke="#bdc3c7" stroke-width="1"/>
        <rect x="659.3461538461538" y="198" width="14" height="56" fill="#1b1c1e" rx="1.5" stroke="#34495e" stroke-width="0.8"/>
        <rect x="661.3461538461538" y="200" width="10" height="52" fill="#0d0e0f" rx="1"/>
        <!-- Core silicon dye -->
        <rect x="664.3461538461538" y="220.4" width="4" height="6" fill="#00d2ff" filter="url(#neon-glow)"/>
      
      <circle class="led" cx="666.3461538461538" cy="206.4" r="2" fill="#10ac84" filter="url(#neon-glow)"
        style="animation-delay:1.4s"/>
    </g>
  <g class="component"><line x1="676.5" y1="190" x2="676.5" y2="198" stroke="#bdc3c7" stroke-width="1"/><line x1="683.6538461538462" y1="190" x2="683.6538461538462" y2="198" stroke="#bdc3c7" stroke-width="1"/><line x1="690.8076923076923" y1="190" x2="690.8076923076923" y2="198" stroke="#bdc3c7" stroke-width="1"/>
        <path d="M 678.6538461538462,198 L 688.6538461538462,198 L 688.6538461538462,233 C 688.6538461538462,237 678.6538461538462,237 678.6538461538462,233 Z" fill="#111" stroke="#333" stroke-width="0.5"/>
        <rect x="679.6538461538462" y="200" width="8" height="2" fill="#3498db"/>
      </g>
  <g class="component"><line x1="693.8076923076923" y1="190" x2="693.8076923076923" y2="198" stroke="#bdc3c7" stroke-width="1"/><line x1="700.9615384615385" y1="190" x2="700.9615384615385" y2="198" stroke="#bdc3c7" stroke-width="1"/><line x1="708.1153846153845" y1="190" x2="708.1153846153845" y2="198" stroke="#bdc3c7" stroke-width="1"/>
        <path d="M 695.9615384615385,198 L 705.9615384615385,198 L 705.9615384615385,233 C 705.9615384615385,237 695.9615384615385,237 695.9615384615385,233 Z" fill="#111" stroke="#333" stroke-width="0.5"/>
        <rect x="696.9615384615385" y="200" width="8" height="2" fill="#e67e22"/>
      </g>
  <g class="component"><line x1="711.1153846153845" y1="190" x2="711.1153846153845" y2="198" stroke="#bdc3c7" stroke-width="1"/><line x1="718.2692307692307" y1="190" x2="718.2692307692307" y2="198" stroke="#bdc3c7" stroke-width="1"/><line x1="725.4230769230768" y1="190" x2="725.4230769230768" y2="198" stroke="#bdc3c7" stroke-width="1"/>
        <path d="M 713.2692307692307,198 L 723.2692307692307,198 L 723.2692307692307,233 C 723.2692307692307,237 713.2692307692307,237 713.2692307692307,233 Z" fill="#111" stroke="#333" stroke-width="0.5"/>
        <rect x="714.2692307692307" y="200" width="8" height="2" fill="#1abc9c"/>
      </g>
  
  <g class="component"><line x1="745.7307692307692" y1="190" x2="745.7307692307692" y2="198" stroke="#bdc3c7" stroke-width="1"/><line x1="752.8846153846154" y1="190" x2="752.8846153846154" y2="198" stroke="#bdc3c7" stroke-width="1"/><line x1="760.0384615384614" y1="190" x2="760.0384615384614" y2="198" stroke="#bdc3c7" stroke-width="1"/>
        <path d="M 747.8846153846154,198 L 757.8846153846154,198 L 757.8846153846154,237 C 757.8846153846154,241 747.8846153846154,241 747.8846153846154,237 Z" fill="#111" stroke="#333" stroke-width="0.5"/>
        <rect x="748.8846153846154" y="200" width="8" height="2" fill="#3498db"/>
      </g>
  <g class="component"><line x1="763.0384615384614" y1="190" x2="763.0384615384614" y2="198" stroke="#bdc3c7" stroke-width="1"/><line x1="770.1923076923076" y1="190" x2="770.1923076923076" y2="198" stroke="#bdc3c7" stroke-width="1"/><line x1="777.3461538461537" y1="190" x2="777.3461538461537" y2="198" stroke="#bdc3c7" stroke-width="1"/>
        <path d="M 765.1923076923076,198 L 775.1923076923076,198 L 775.1923076923076,237 C 775.1923076923076,241 765.1923076923076,241 765.1923076923076,237 Z" fill="#111" stroke="#333" stroke-width="0.5"/>
        <rect x="766.1923076923076" y="200" width="8" height="2" fill="#e67e22"/>
      </g>
  <g class="component"><line x1="780.3461538461538" y1="190" x2="780.3461538461538" y2="198" stroke="#bdc3c7" stroke-width="1"/><line x1="781.6468531468531" y1="190" x2="781.6468531468531" y2="198" stroke="#bdc3c7" stroke-width="1"/><line x1="782.9475524475524" y1="190" x2="782.9475524475524" y2="198" stroke="#bdc3c7" stroke-width="1"/><line x1="784.2482517482517" y1="190" x2="784.2482517482517" y2="198" stroke="#bdc3c7" stroke-width="1"/><line x1="785.548951048951" y1="190" x2="785.548951048951" y2="198" stroke="#bdc3c7" stroke-width="1"/><line x1="786.8496503496503" y1="190" x2="786.8496503496503" y2="198" stroke="#bdc3c7" stroke-width="1"/><line x1="788.1503496503497" y1="190" x2="788.1503496503497" y2="198" stroke="#bdc3c7" stroke-width="1"/><line x1="789.451048951049" y1="190" x2="789.451048951049" y2="198" stroke="#bdc3c7" stroke-width="1"/><line x1="790.7517482517483" y1="190" x2="790.7517482517483" y2="198" stroke="#bdc3c7" stroke-width="1"/><line x1="792.0524475524475" y1="190" x2="792.0524475524475" y2="198" stroke="#bdc3c7" stroke-width="1"/><line x1="793.3531468531468" y1="190" x2="793.3531468531468" y2="198" stroke="#bdc3c7" stroke-width="1"/><line x1="794.6538461538461" y1="190" x2="794.6538461538461" y2="198" stroke="#bdc3c7" stroke-width="1"/>
        <rect x="780.5" y="198" width="14" height="55" fill="#1b1c1e" rx="1.5" stroke="#34495e" stroke-width="0.8"/>
        <rect x="782.5" y="200" width="10" height="51" fill="#0d0e0f" rx="1"/>
        <!-- Core silicon dye -->
        <rect x="785.5" y="220" width="4" height="6" fill="#9b59b6" filter="url(#neon-glow)"/>
      
      <circle class="led" cx="787.5" cy="206.25" r="2" fill="#10ac84" filter="url(#neon-glow)"
        style="animation-delay:1.0s"/>
    </g>
  <g class="component"><line x1="797.6538461538461" y1="190" x2="797.6538461538461" y2="198" stroke="#bdc3c7" stroke-width="1"/><line x1="811.9615384615383" y1="190" x2="811.9615384615383" y2="198" stroke="#bdc3c7" stroke-width="1"/>
        <rect x="801.8076923076923" y="198" width="6" height="22" fill="#dfb887" rx="2" stroke="#7f603c" stroke-width="0.8"/>
        <!-- Resistor Color Bands -->
        <rect x="801.8076923076923" y="202.4" width="6" height="2" fill="#c0392b"/>
        <rect x="801.8076923076923" y="209" width="6" height="2" fill="#f1c40f"/>
        <rect x="801.8076923076923" y="213.4" width="6" height="2" fill="#27ae60"/>
      </g>
  <g class="component"><line x1="814.9615384615385" y1="190" x2="814.9615384615385" y2="198" stroke="#bdc3c7" stroke-width="1"/><line x1="817.0054945054945" y1="190" x2="817.0054945054945" y2="198" stroke="#bdc3c7" stroke-width="1"/><line x1="819.0494505494505" y1="190" x2="819.0494505494505" y2="198" stroke="#bdc3c7" stroke-width="1"/><line x1="821.0934065934066" y1="190" x2="821.0934065934066" y2="198" stroke="#bdc3c7" stroke-width="1"/><line x1="823.1373626373627" y1="190" x2="823.1373626373627" y2="198" stroke="#bdc3c7" stroke-width="1"/><line x1="825.1813186813187" y1="190" x2="825.1813186813187" y2="198" stroke="#bdc3c7" stroke-width="1"/><line x1="827.2252747252747" y1="190" x2="827.2252747252747" y2="198" stroke="#bdc3c7" stroke-width="1"/><line x1="829.2692307692307" y1="190" x2="829.2692307692307" y2="198" stroke="#bdc3c7" stroke-width="1"/>
        <rect x="817.1153846153846" y="198" width="10" height="45" fill="#222" rx="1" stroke="#444" stroke-width="0.5"/>
        <line x1="822.1153846153846" y1="198" x2="822.1153846153846" y2="201" stroke="#111" stroke-width="1.5"/> <!-- pin 1 notch -->
        <rect x="818.1153846153846" y="211.5" width="8" height="18" fill="#e67e22" opacity="0.8"/>
      </g>
  <g class="component"><line x1="832.2692307692307" y1="190" x2="832.2692307692307" y2="198" stroke="#bdc3c7" stroke-width="1"/><line x1="833.56993006993" y1="190" x2="833.56993006993" y2="198" stroke="#bdc3c7" stroke-width="1"/><line x1="834.8706293706293" y1="190" x2="834.8706293706293" y2="198" stroke="#bdc3c7" stroke-width="1"/><line x1="836.1713286713286" y1="190" x2="836.1713286713286" y2="198" stroke="#bdc3c7" stroke-width="1"/><line x1="837.472027972028" y1="190" x2="837.472027972028" y2="198" stroke="#bdc3c7" stroke-width="1"/><line x1="838.7727272727273" y1="190" x2="838.7727272727273" y2="198" stroke="#bdc3c7" stroke-width="1"/><line x1="840.0734265734266" y1="190" x2="840.0734265734266" y2="198" stroke="#bdc3c7" stroke-width="1"/><line x1="841.3741258741259" y1="190" x2="841.3741258741259" y2="198" stroke="#bdc3c7" stroke-width="1"/><line x1="842.6748251748252" y1="190" x2="842.6748251748252" y2="198" stroke="#bdc3c7" stroke-width="1"/><line x1="843.9755244755244" y1="190" x2="843.9755244755244" y2="198" stroke="#bdc3c7" stroke-width="1"/><line x1="845.2762237762237" y1="190" x2="845.2762237762237" y2="198" stroke="#bdc3c7" stroke-width="1"/><line x1="846.576923076923" y1="190" x2="846.576923076923" y2="198" stroke="#bdc3c7" stroke-width="1"/>
        <rect x="832.4230769230769" y="198" width="14" height="56" fill="#1b1c1e" rx="1.5" stroke="#34495e" stroke-width="0.8"/>
        <rect x="834.4230769230769" y="200" width="10" height="52" fill="#0d0e0f" rx="1"/>
        <!-- Core silicon dye -->
        <rect x="837.4230769230769" y="220.4" width="4" height="6" fill="#00d2ff" filter="url(#neon-glow)"/>
      
      <circle class="led" cx="839.4230769230769" cy="206.4" r="2" fill="#10ac84" filter="url(#neon-glow)"
        style="animation-delay:1.9s"/>
    </g>
  <g class="component"><line x1="849.576923076923" y1="190" x2="849.576923076923" y2="198" stroke="#bdc3c7" stroke-width="1"/><line x1="850.8776223776223" y1="190" x2="850.8776223776223" y2="198" stroke="#bdc3c7" stroke-width="1"/><line x1="852.1783216783216" y1="190" x2="852.1783216783216" y2="198" stroke="#bdc3c7" stroke-width="1"/><line x1="853.4790209790209" y1="190" x2="853.4790209790209" y2="198" stroke="#bdc3c7" stroke-width="1"/><line x1="854.7797202797202" y1="190" x2="854.7797202797202" y2="198" stroke="#bdc3c7" stroke-width="1"/><line x1="856.0804195804195" y1="190" x2="856.0804195804195" y2="198" stroke="#bdc3c7" stroke-width="1"/><line x1="857.3811188811188" y1="190" x2="857.3811188811188" y2="198" stroke="#bdc3c7" stroke-width="1"/><line x1="858.6818181818181" y1="190" x2="858.6818181818181" y2="198" stroke="#bdc3c7" stroke-width="1"/><line x1="859.9825174825174" y1="190" x2="859.9825174825174" y2="198" stroke="#bdc3c7" stroke-width="1"/><line x1="861.2832167832166" y1="190" x2="861.2832167832166" y2="198" stroke="#bdc3c7" stroke-width="1"/><line x1="862.5839160839159" y1="190" x2="862.5839160839159" y2="198" stroke="#bdc3c7" stroke-width="1"/><line x1="863.8846153846152" y1="190" x2="863.8846153846152" y2="198" stroke="#bdc3c7" stroke-width="1"/>
        <rect x="849.7307692307692" y="198" width="14" height="90" fill="#1b1c1e" rx="1.5" stroke="#34495e" stroke-width="0.8"/>
        <rect x="851.7307692307692" y="200" width="10" height="86" fill="#0d0e0f" rx="1"/>
        <!-- Core silicon dye -->
        <rect x="854.7307692307692" y="234" width="4" height="6" fill="#00d2ff" filter="url(#neon-glow)"/>
      
      <circle class="led" cx="856.7307692307692" cy="211.5" r="2" fill="#10ac84" filter="url(#neon-glow)"
        style="animation-delay:2.2s"/>
    </g>
  <g class="component"><line x1="866.8846153846154" y1="190" x2="866.8846153846154" y2="198" stroke="#bdc3c7" stroke-width="1"/><line x1="868.1853146853147" y1="190" x2="868.1853146853147" y2="198" stroke="#bdc3c7" stroke-width="1"/><line x1="869.486013986014" y1="190" x2="869.486013986014" y2="198" stroke="#bdc3c7" stroke-width="1"/><line x1="870.7867132867133" y1="190" x2="870.7867132867133" y2="198" stroke="#bdc3c7" stroke-width="1"/><line x1="872.0874125874126" y1="190" x2="872.0874125874126" y2="198" stroke="#bdc3c7" stroke-width="1"/><line x1="873.3881118881119" y1="190" x2="873.3881118881119" y2="198" stroke="#bdc3c7" stroke-width="1"/><line x1="874.6888111888112" y1="190" x2="874.6888111888112" y2="198" stroke="#bdc3c7" stroke-width="1"/><line x1="875.9895104895105" y1="190" x2="875.9895104895105" y2="198" stroke="#bdc3c7" stroke-width="1"/><line x1="877.2902097902098" y1="190" x2="877.2902097902098" y2="198" stroke="#bdc3c7" stroke-width="1"/><line x1="878.590909090909" y1="190" x2="878.590909090909" y2="198" stroke="#bdc3c7" stroke-width="1"/><line x1="879.8916083916083" y1="190" x2="879.8916083916083" y2="198" stroke="#bdc3c7" stroke-width="1"/><line x1="881.1923076923076" y1="190" x2="881.1923076923076" y2="198" stroke="#bdc3c7" stroke-width="1"/>
        <rect x="867.0384615384615" y="198" width="14" height="80" fill="#1b1c1e" rx="1.5" stroke="#34495e" stroke-width="0.8"/>
        <rect x="869.0384615384615" y="200" width="10" height="76" fill="#0d0e0f" rx="1"/>
        <!-- Core silicon dye -->
        <rect x="872.0384615384615" y="230" width="4" height="6" fill="#1abc9c" filter="url(#neon-glow)"/>
      
      <circle class="led" cx="874.0384615384615" cy="210" r="2" fill="#10ac84" filter="url(#neon-glow)"
        style="animation-delay:0.0s"/>
    </g>
  <g class="component"><line x1="884.1923076923076" y1="190" x2="884.1923076923076" y2="198" stroke="#bdc3c7" stroke-width="1"/><line x1="886.2362637362637" y1="190" x2="886.2362637362637" y2="198" stroke="#bdc3c7" stroke-width="1"/><line x1="888.2802197802197" y1="190" x2="888.2802197802197" y2="198" stroke="#bdc3c7" stroke-width="1"/><line x1="890.3241758241758" y1="190" x2="890.3241758241758" y2="198" stroke="#bdc3c7" stroke-width="1"/><line x1="892.3681318681317" y1="190" x2="892.3681318681317" y2="198" stroke="#bdc3c7" stroke-width="1"/><line x1="894.4120879120878" y1="190" x2="894.4120879120878" y2="198" stroke="#bdc3c7" stroke-width="1"/><line x1="896.4560439560439" y1="190" x2="896.4560439560439" y2="198" stroke="#bdc3c7" stroke-width="1"/><line x1="898.4999999999999" y1="190" x2="898.4999999999999" y2="198" stroke="#bdc3c7" stroke-width="1"/>
        <rect x="886.3461538461538" y="198" width="10" height="45" fill="#222" rx="1" stroke="#444" stroke-width="0.5"/>
        <line x1="891.3461538461538" y1="198" x2="891.3461538461538" y2="201" stroke="#111" stroke-width="1.5"/> <!-- pin 1 notch -->
        <rect x="887.3461538461538" y="211.5" width="8" height="18" fill="#3498db" opacity="0.8"/>
      
      <circle class="led" cx="891.3461538461538" cy="204.75" r="2" fill="#10ac84" filter="url(#neon-glow)"
        style="animation-delay:0.3s"/>
    </g>

  <!-- Side Power Level LED Bar (Contribution Streak) -->
  
    <g>
      <!-- Housing -->
      <rect x="864" y="100" width="26" height="80" fill="rgba(0,0,0,0.6)" rx="3" stroke="#1b324f" stroke-width="1.5"/>
      
      <rect x="868" y="160" width="18" height="8" fill="#2c3e50" rx="1"
         
        style="animation-delay:0.00s"/>
    
    
      <rect x="868" y="146" width="18" height="8" fill="#2c3e50" rx="1"
         
        style="animation-delay:0.15s"/>
    
    
      <rect x="868" y="132" width="18" height="8" fill="#2c3e50" rx="1"
         
        style="animation-delay:0.30s"/>
    
    
      <rect x="868" y="118" width="18" height="8" fill="#2c3e50" rx="1"
         
        style="animation-delay:0.45s"/>
    
    
      <rect x="868" y="104" width="18" height="8" fill="#2c3e50" rx="1"
         
        style="animation-delay:0.60s"/>
    
      <text x="865" y="192" font-family="monospace" font-size="8" fill="#fff" opacity="0.7">PWR</text>
    </g>
  

  <!-- Glitching sparks if open issues are high -->
  
      <g transform="translate(246, 152)" class="spark-group" style="animation-delay:0.0s">
        <line x1="0" y1="0" x2="-8" y2="-8" stroke="#ff4757" stroke-width="1.2" />
        <line x1="0" y1="0" x2="8" y2="-6" stroke="#ffa502" stroke-width="1.2" />
        <line x1="0" y1="0" x2="-4" y2="8" stroke="#fff" stroke-width="1.5" />
        <circle cx="0" cy="0" r="3" fill="#ff4757" filter="url(#neon-glow)"/>
      </g>
    

      <g transform="translate(392, 134)" class="spark-group" style="animation-delay:0.7s">
        <line x1="0" y1="0" x2="-8" y2="-8" stroke="#ff4757" stroke-width="1.2" />
        <line x1="0" y1="0" x2="8" y2="-6" stroke="#ffa502" stroke-width="1.2" />
        <line x1="0" y1="0" x2="-4" y2="8" stroke="#fff" stroke-width="1.5" />
        <circle cx="0" cy="0" r="3" fill="#ff4757" filter="url(#neon-glow)"/>
      </g>
    

      <g transform="translate(538, 116)" class="spark-group" style="animation-delay:1.4s">
        <line x1="0" y1="0" x2="-8" y2="-8" stroke="#ff4757" stroke-width="1.2" />
        <line x1="0" y1="0" x2="8" y2="-6" stroke="#ffa502" stroke-width="1.2" />
        <line x1="0" y1="0" x2="-4" y2="8" stroke="#fff" stroke-width="1.5" />
        <circle cx="0" cy="0" r="3" fill="#ff4757" filter="url(#neon-glow)"/>
      </g>
    

      <g transform="translate(684, 98)" class="spark-group" style="animation-delay:2.1s">
        <line x1="0" y1="0" x2="-8" y2="-8" stroke="#ff4757" stroke-width="1.2" />
        <line x1="0" y1="0" x2="8" y2="-6" stroke="#ffa502" stroke-width="1.2" />
        <line x1="0" y1="0" x2="-4" y2="8" stroke="#fff" stroke-width="1.5" />
        <circle cx="0" cy="0" r="3" fill="#ff4757" filter="url(#neon-glow)"/>
      </g>
    

  <!-- HUD Panel -->
  
  <g>
    <rect x="8" y="8" width="220" height="22" rx="4" fill="rgba(0,0,0,0.6)" stroke="#1b324f" stroke-width="1"/>
    <text x="14" y="22" font-family="monospace" font-size="10" fill="#fff" font-weight="bold">
      ⚡ Dasmat13's Core · 548 units
    </text>
  </g>
  <g>
    <rect x="650" y="8" width="200" height="22" rx="4" fill="rgba(0,0,0,0.6)" stroke="#1b324f" stroke-width="1"/>
    <text x="656" y="22" font-family="monospace" font-size="10" fill="#00d2ff" font-weight="bold">
      CLK: 106 MHz · STREAK: 0d
    </text>
  </g>

  <style>
    /* Pulsing current trace flow */
    .pulse-trace {
      stroke-dasharray: 40, 160;
      stroke-dashoffset: 200;
      animation: trace-flow infinite linear;
    }
    @keyframes trace-flow {
      to { stroke-dashoffset: 0; }
    }

    /* Flashing status indicator LEDs */
    .led {
      animation: led-blink 1.8s ease-in-out infinite alternate;
    }
    @keyframes led-blink {
      0%, 30%   { opacity: 0.15; filter: brightness(0.5); }
      70%, 100% { opacity: 1; filter: brightness(1.6); }
    }

    /* Power bar LED segment breath animation */
    .power-led {
      animation: power-breath 2.5s ease-in-out infinite alternate;
    }
    @keyframes power-breath {
      0%   { filter: brightness(0.8) drop-shadow(0 0 1px #00d2ff); }
      100% { filter: brightness(1.3) drop-shadow(0 0 4px #00d2ff); }
    }

    /* Glitch spark explosion */
    .spark-group {
      opacity: 0;
      animation: glitch-spark 2.5s ease-in-out infinite;
      transform-origin: center;
    }
    @keyframes glitch-spark {
      0%, 90% { opacity: 0; transform: scale(0.3); }
      92%     { opacity: 1; transform: scale(1.2); }
      94%     { opacity: 0.5; transform: scale(0.9); }
      95%     { opacity: 1; transform: scale(1.4); }
      98%, 100% { opacity: 0; transform: scale(0.5); }
    }
  </style>
</svg>