<svg xmlns="http://www.w3.org/2000/svg"
     xmlns:xlink="http://www.w3.org/1999/xlink"
     viewBox="0 0 900 260" width="900" height="260"
     style="border-radius:12px;overflow:hidden;background:#111111">
  <defs>
    <!-- Glow filter for neon electric pulses and LEDs -->
    <filter id="neon-glow" x="-20%" y="-20%" width="140%" height="140%">
      <feGaussianBlur in="SourceGraphic" stdDeviation="2.5" result="blur"/>
      <feMerge>
        <feMergeNode in="blur"/>
        <feMergeNode in="SourceGraphic"/>
      </feMerge>
    </filter>
    <linearGradient id="pcb-shading" x1="0" y1="0" x2="0" y2="1">
      <stop offset="0%" stop-color="rgba(255,255,255,0.03)"/>
      <stop offset="100%" stop-color="rgba(0,0,0,0.4)"/>
    </linearGradient>
  </defs>

  <!-- PCB shading overlay -->
  <rect width="900" height="260" fill="url(#pcb-shading)"/>

  <!-- PCB Grid texture -->
  <line x1="40" y1="0" x2="40" y2="260" stroke="rgba(255,255,255,0.015)" stroke-width="1"/>
  <line x1="80" y1="0" x2="80" y2="260" stroke="rgba(255,255,255,0.015)" stroke-width="1"/>
  <line x1="120" y1="0" x2="120" y2="260" stroke="rgba(255,255,255,0.015)" stroke-width="1"/>
  <line x1="160" y1="0" x2="160" y2="260" stroke="rgba(255,255,255,0.015)" stroke-width="1"/>
  <line x1="200" y1="0" x2="200" y2="260" stroke="rgba(255,255,255,0.015)" stroke-width="1"/>
  <line x1="240" y1="0" x2="240" y2="260" stroke="rgba(255,255,255,0.015)" stroke-width="1"/>
  <line x1="280" y1="0" x2="280" y2="260" stroke="rgba(255,255,255,0.015)" stroke-width="1"/>
  <line x1="320" y1="0" x2="320" y2="260" stroke="rgba(255,255,255,0.015)" stroke-width="1"/>
  <line x1="360" y1="0" x2="360" y2="260" stroke="rgba(255,255,255,0.015)" stroke-width="1"/>
  <line x1="400" y1="0" x2="400" y2="260" stroke="rgba(255,255,255,0.015)" stroke-width="1"/>
  <line x1="440" y1="0" x2="440" y2="260" stroke="rgba(255,255,255,0.015)" stroke-width="1"/>
  <line x1="480" y1="0" x2="480" y2="260" stroke="rgba(255,255,255,0.015)" stroke-width="1"/>
  <line x1="520" y1="0" x2="520" y2="260" stroke="rgba(255,255,255,0.015)" stroke-width="1"/>
  <line x1="560" y1="0" x2="560" y2="260" stroke="rgba(255,255,255,0.015)" stroke-width="1"/>
  <line x1="600" y1="0" x2="600" y2="260" stroke="rgba(255,255,255,0.015)" stroke-width="1"/>
  <line x1="640" y1="0" x2="640" y2="260" stroke="rgba(255,255,255,0.015)" stroke-width="1"/>
  <line x1="680" y1="0" x2="680" y2="260" stroke="rgba(255,255,255,0.015)" stroke-width="1"/>
  <line x1="720" y1="0" x2="720" y2="260" stroke="rgba(255,255,255,0.015)" stroke-width="1"/>
  <line x1="760" y1="0" x2="760" y2="260" stroke="rgba(255,255,255,0.015)" stroke-width="1"/>
  <line x1="800" y1="0" x2="800" y2="260" stroke="rgba(255,255,255,0.015)" stroke-width="1"/>
  <line x1="840" y1="0" x2="840" y2="260" stroke="rgba(255,255,255,0.015)" stroke-width="1"/>
  <line x1="880" y1="0" x2="880" y2="260" stroke="rgba(255,255,255,0.015)" stroke-width="1"/>
  <line x1="0" y1="30" x2="900" y2="30" stroke="rgba(255,255,255,0.015)" stroke-width="1"/>
  <line x1="0" y1="60" x2="900" y2="60" stroke="rgba(255,255,255,0.015)" stroke-width="1"/>
  <line x1="0" y1="90" x2="900" y2="90" stroke="rgba(255,255,255,0.015)" stroke-width="1"/>
  <line x1="0" y1="120" x2="900" y2="120" stroke="rgba(255,255,255,0.015)" stroke-width="1"/>
  <line x1="0" y1="150" x2="900" y2="150" stroke="rgba(255,255,255,0.015)" stroke-width="1"/>
  <line x1="0" y1="180" x2="900" y2="180" stroke="rgba(255,255,255,0.015)" stroke-width="1"/>
  <line x1="0" y1="210" x2="900" y2="210" stroke="rgba(255,255,255,0.015)" stroke-width="1"/>
  <line x1="0" y1="240" x2="900" y2="240" stroke="rgba(255,255,255,0.015)" stroke-width="1"/>

  <!-- Board circular vias/mounts in corners -->
  <circle cx="20" cy="20" r="8" fill="none" stroke="#332a15" stroke-width="2"/>
  <circle cx="20" cy="20" r="4" fill="#111111" stroke="#332a15" stroke-width="1"/>
  <circle cx="880" cy="20" r="8" fill="none" stroke="#332a15" stroke-width="2"/>
  <circle cx="880" cy="20" r="4" fill="#111111" stroke="#332a15" stroke-width="1"/>

  <!-- Main bus line track -->
  <line x1="10" y1="190" x2="890" y2="190" stroke="#332a15" stroke-width="3" stroke-linecap="round"/>

  <!-- Base Trace Lines (un-pulsed background paths) -->
  <polyline points="244,178 294,178 334,208 414,208" fill="none" stroke="#332a15" stroke-width="1.5" stroke-linecap="round" stroke-linejoin="round"/>
  <polyline points="438,166 488,166 528,196 608,196" fill="none" stroke="#332a15" stroke-width="1.5" stroke-linecap="round" stroke-linejoin="round"/>
  <polyline points="632,154 682,154 722,184 802,184" fill="none" stroke="#332a15" stroke-width="1.5" stroke-linecap="round" stroke-linejoin="round"/>
  <polyline points="826,142 876,142 916,172 996,172" fill="none" stroke="#332a15" stroke-width="1.5" stroke-linecap="round" stroke-linejoin="round"/>
  <polyline points="220,130 270,130 310,160 390,160" fill="none" stroke="#332a15" stroke-width="1.5" stroke-linecap="round" stroke-linejoin="round"/>
  <polyline points="414,118 464,118 504,148 584,148" fill="none" stroke="#332a15" stroke-width="1.5" stroke-linecap="round" stroke-linejoin="round"/>
  <polyline points="608,106 658,106 698,136 778,136" fill="none" stroke="#332a15" stroke-width="1.5" stroke-linecap="round" stroke-linejoin="round"/>
  <polyline points="802,94 852,94 892,124 972,124" fill="none" stroke="#332a15" stroke-width="1.5" stroke-linecap="round" stroke-linejoin="round"/>
  <polyline points="196,82 246,82 286,112 366,112" fill="none" stroke="#332a15" stroke-width="1.5" stroke-linecap="round" stroke-linejoin="round"/>
  <polyline points="390,70 440,70 480,100 560,100" fill="none" stroke="#332a15" stroke-width="1.5" stroke-linecap="round" stroke-linejoin="round"/>
  <polyline points="584,58 634,58 674,88 754,88" fill="none" stroke="#332a15" stroke-width="1.5" stroke-linecap="round" stroke-linejoin="round"/>
  <polyline points="778,46 828,46 868,76 948,76" fill="none" stroke="#332a15" stroke-width="1.5" stroke-linecap="round" stroke-linejoin="round"/>
  <polyline points="172,184 222,184 262,214 342,214" fill="none" stroke="#332a15" stroke-width="1.5" stroke-linecap="round" stroke-linejoin="round"/>
  <polyline points="366,172 416,172 456,202 536,202" fill="none" stroke="#332a15" stroke-width="1.5" stroke-linecap="round" stroke-linejoin="round"/>
  <polyline points="560,160 610,160 650,190 730,190" fill="none" stroke="#332a15" stroke-width="1.5" stroke-linecap="round" stroke-linejoin="round"/>

  <!-- Active Neon Pulsing Traces -->
  
    <polyline class="pulse-trace" points="244,178 294,178 334,208 414,208" fill="none" 
      stroke="#f1c40f" stroke-width="1.5" stroke-linecap="round" stroke-linejoin="round"
      filter="url(#neon-glow)"
      style="animation-duration:8.807196863200843s; animation-delay:0s"/>
  
  
    <polyline class="pulse-trace" points="438,166 488,166 528,196 608,196" fill="none" 
      stroke="#f1c40f" stroke-width="1.5" stroke-linecap="round" stroke-linejoin="round"
      filter="url(#neon-glow)"
      style="animation-duration:8.807196863200843s; animation-delay:0.5s"/>
  
  
    <polyline class="pulse-trace" points="632,154 682,154 722,184 802,184" fill="none" 
      stroke="#f1c40f" stroke-width="1.5" stroke-linecap="round" stroke-linejoin="round"
      filter="url(#neon-glow)"
      style="animation-duration:8.807196863200843s; animation-delay:1s"/>
  
  
    <polyline class="pulse-trace" points="826,142 876,142 916,172 996,172" fill="none" 
      stroke="#f1c40f" stroke-width="1.5" stroke-linecap="round" stroke-linejoin="round"
      filter="url(#neon-glow)"
      style="animation-duration:8.807196863200843s; animation-delay:1.5s"/>
  
  
    <polyline class="pulse-trace" points="220,130 270,130 310,160 390,160" fill="none" 
      stroke="#f1c40f" stroke-width="1.5" stroke-linecap="round" stroke-linejoin="round"
      filter="url(#neon-glow)"
      style="animation-duration:8.807196863200843s; animation-delay:2s"/>
  
  
    <polyline class="pulse-trace" points="414,118 464,118 504,148 584,148" fill="none" 
      stroke="#f1c40f" stroke-width="1.5" stroke-linecap="round" stroke-linejoin="round"
      filter="url(#neon-glow)"
      style="animation-duration:8.807196863200843s; animation-delay:2.5s"/>
  
  
    <polyline class="pulse-trace" points="608,106 658,106 698,136 778,136" fill="none" 
      stroke="#f1c40f" stroke-width="1.5" stroke-linecap="round" stroke-linejoin="round"
      filter="url(#neon-glow)"
      style="animation-duration:8.807196863200843s; animation-delay:3s"/>
  
  
    <polyline class="pulse-trace" points="802,94 852,94 892,124 972,124" fill="none" 
      stroke="#f1c40f" stroke-width="1.5" stroke-linecap="round" stroke-linejoin="round"
      filter="url(#neon-glow)"
      style="animation-duration:8.807196863200843s; animation-delay:3.5s"/>
  
  
    <polyline class="pulse-trace" points="196,82 246,82 286,112 366,112" fill="none" 
      stroke="#f1c40f" stroke-width="1.5" stroke-linecap="round" stroke-linejoin="round"
      filter="url(#neon-glow)"
      style="animation-duration:8.807196863200843s; animation-delay:0s"/>
  
  
    <polyline class="pulse-trace" points="390,70 440,70 480,100 560,100" fill="none" 
      stroke="#f1c40f" stroke-width="1.5" stroke-linecap="round" stroke-linejoin="round"
      filter="url(#neon-glow)"
      style="animation-duration:8.807196863200843s; animation-delay:0.5s"/>
  
  
    <polyline class="pulse-trace" points="584,58 634,58 674,88 754,88" fill="none" 
      stroke="#f1c40f" stroke-width="1.5" stroke-linecap="round" stroke-linejoin="round"
      filter="url(#neon-glow)"
      style="animation-duration:8.807196863200843s; animation-delay:1s"/>
  
  
    <polyline class="pulse-trace" points="778,46 828,46 868,76 948,76" fill="none" 
      stroke="#f1c40f" stroke-width="1.5" stroke-linecap="round" stroke-linejoin="round"
      filter="url(#neon-glow)"
      style="animation-duration:8.807196863200843s; animation-delay:1.5s"/>
  
  
    <polyline class="pulse-trace" points="172,184 222,184 262,214 342,214" fill="none" 
      stroke="#f1c40f" stroke-width="1.5" stroke-linecap="round" stroke-linejoin="round"
      filter="url(#neon-glow)"
      style="animation-duration:8.807196863200843s; animation-delay:2s"/>
  
  
    <polyline class="pulse-trace" points="366,172 416,172 456,202 536,202" fill="none" 
      stroke="#f1c40f" stroke-width="1.5" stroke-linecap="round" stroke-linejoin="round"
      filter="url(#neon-glow)"
      style="animation-duration:8.807196863200843s; animation-delay:2.5s"/>
  
  
    <polyline class="pulse-trace" points="560,160 610,160 650,190 730,190" fill="none" 
      stroke="#f1c40f" stroke-width="1.5" stroke-linecap="round" stroke-linejoin="round"
      filter="url(#neon-glow)"
      style="animation-duration:8.807196863200843s; animation-delay:3s"/>
  

  <!-- Component Bridges / Ribbon Cables -->
  
    <g transform="translate(744, 86)">
      <!-- Ribbon base -->
      <rect x="0" y="0" width="68" height="10" fill="#2c3e50" rx="1"/>
      <!-- Striped wires inside ribbon -->
      <line x1="4" y1="0" x2="4" y2="10" stroke="#e74c3c" stroke-width="1.5"/>
      <line x1="10" y1="0" x2="10" y2="10" stroke="#ecf0f1" stroke-width="1.5"/>
      <line x1="16" y1="0" x2="16" y2="10" stroke="#3498db" stroke-width="1.5"/>
      <line x1="22" y1="0" x2="22" y2="10" stroke="#f1c40f" stroke-width="1.5"/>
      <line x1="28" y1="0" x2="28" y2="10" stroke="#2ecc71" stroke-width="1.5"/>
      <!-- Connector endpoints -->
      <rect x="-2" y="-2" width="6" height="14" fill="#111" rx="0.5"/>
      <rect x="64" y="-2" width="6" height="14" fill="#111" rx="0.5"/>
    </g>
  
  
    <g transform="translate(718, 92)">
      <!-- Ribbon base -->
      <rect x="0" y="0" width="66" height="10" fill="#2c3e50" rx="1"/>
      <!-- Striped wires inside ribbon -->
      <line x1="4" y1="0" x2="4" y2="10" stroke="#e74c3c" stroke-width="1.5"/>
      <line x1="10" y1="0" x2="10" y2="10" stroke="#ecf0f1" stroke-width="1.5"/>
      <line x1="16" y1="0" x2="16" y2="10" stroke="#3498db" stroke-width="1.5"/>
      <line x1="22" y1="0" x2="22" y2="10" stroke="#f1c40f" stroke-width="1.5"/>
      <line x1="28" y1="0" x2="28" y2="10" stroke="#2ecc71" stroke-width="1.5"/>
      <!-- Connector endpoints -->
      <rect x="-2" y="-2" width="6" height="14" fill="#111" rx="0.5"/>
      <rect x="62" y="-2" width="6" height="14" fill="#111" rx="0.5"/>
    </g>
  

  <!-- Mounted Components (Resistors, Chips, etc.) -->
  <g class="component"><line x1="1.5" y1="190" x2="1.5" y2="198" stroke="#bdc3c7" stroke-width="1"/><line x1="3.543956043956044" y1="190" x2="3.543956043956044" y2="198" stroke="#bdc3c7" stroke-width="1"/><line x1="5.587912087912088" y1="190" x2="5.587912087912088" y2="198" stroke="#bdc3c7" stroke-width="1"/><line x1="7.631868131868131" y1="190" x2="7.631868131868131" y2="198" stroke="#bdc3c7" stroke-width="1"/><line x1="9.675824175824175" y1="190" x2="9.675824175824175" y2="198" stroke="#bdc3c7" stroke-width="1"/><line x1="11.719780219780219" y1="190" x2="11.719780219780219" y2="198" stroke="#bdc3c7" stroke-width="1"/><line x1="13.763736263736263" y1="190" x2="13.763736263736263" y2="198" stroke="#bdc3c7" stroke-width="1"/><line x1="15.807692307692307" y1="190" x2="15.807692307692307" y2="198" stroke="#bdc3c7" stroke-width="1"/>
        <rect x="3.6538461538461533" y="198" width="10" height="48" fill="#222" rx="1" stroke="#444" stroke-width="0.5"/>
        <line x1="8.653846153846153" y1="198" x2="8.653846153846153" y2="201" stroke="#111" stroke-width="1.5"/> <!-- pin 1 notch -->
        <rect x="4.653846153846153" y="212.4" width="8" height="19.200000000000003" fill="#3498db" opacity="0.8"/>
      
      <circle class="led" cx="8.653846153846153" cy="205.2" r="2" fill="#ff9f43" filter="url(#neon-glow)"
        style="animation-delay:0.0s"/>
    </g>
  <g class="component"><line x1="18.807692307692307" y1="190" x2="18.807692307692307" y2="198" stroke="#bdc3c7" stroke-width="1"/><line x1="20.108391608391607" y1="190" x2="20.108391608391607" y2="198" stroke="#bdc3c7" stroke-width="1"/><line x1="21.409090909090907" y1="190" x2="21.409090909090907" y2="198" stroke="#bdc3c7" stroke-width="1"/><line x1="22.709790209790206" y1="190" x2="22.709790209790206" y2="198" stroke="#bdc3c7" stroke-width="1"/><line x1="24.01048951048951" y1="190" x2="24.01048951048951" y2="198" stroke="#bdc3c7" stroke-width="1"/><line x1="25.31118881118881" y1="190" x2="25.31118881118881" y2="198" stroke="#bdc3c7" stroke-width="1"/><line x1="26.61188811188811" y1="190" x2="26.61188811188811" y2="198" stroke="#bdc3c7" stroke-width="1"/><line x1="27.912587412587413" y1="190" x2="27.912587412587413" y2="198" stroke="#bdc3c7" stroke-width="1"/><line x1="29.213286713286713" y1="190" x2="29.213286713286713" y2="198" stroke="#bdc3c7" stroke-width="1"/><line x1="30.513986013986013" y1="190" x2="30.513986013986013" y2="198" stroke="#bdc3c7" stroke-width="1"/><line x1="31.814685314685313" y1="190" x2="31.814685314685313" y2="198" stroke="#bdc3c7" stroke-width="1"/><line x1="33.11538461538461" y1="190" x2="33.11538461538461" y2="198" stroke="#bdc3c7" stroke-width="1"/>
        <rect x="18.96153846153846" y="198" width="14" height="53" fill="#1b1c1e" rx="1.5" stroke="#34495e" stroke-width="0.8"/>
        <rect x="20.96153846153846" y="200" width="10" height="49" fill="#0d0e0f" rx="1"/>
        <!-- Core silicon dye -->
        <rect x="23.96153846153846" y="219.2" width="4" height="6" fill="#9b59b6" filter="url(#neon-glow)"/>
      
      <circle class="led" cx="25.96153846153846" cy="205.95" r="2" fill="#ff9f43" filter="url(#neon-glow)"
        style="animation-delay:0.3s"/>
    </g>
  <g class="component"><line x1="36.11538461538461" y1="190" x2="36.11538461538461" y2="198" stroke="#bdc3c7" stroke-width="1"/><line x1="38.15934065934066" y1="190" x2="38.15934065934066" y2="198" stroke="#bdc3c7" stroke-width="1"/><line x1="40.2032967032967" y1="190" x2="40.2032967032967" y2="198" stroke="#bdc3c7" stroke-width="1"/><line x1="42.247252747252745" y1="190" x2="42.247252747252745" y2="198" stroke="#bdc3c7" stroke-width="1"/><line x1="44.29120879120879" y1="190" x2="44.29120879120879" y2="198" stroke="#bdc3c7" stroke-width="1"/><line x1="46.33516483516483" y1="190" x2="46.33516483516483" y2="198" stroke="#bdc3c7" stroke-width="1"/><line x1="48.379120879120876" y1="190" x2="48.379120879120876" y2="198" stroke="#bdc3c7" stroke-width="1"/><line x1="50.42307692307692" y1="190" x2="50.42307692307692" y2="198" stroke="#bdc3c7" stroke-width="1"/>
        <rect x="38.26923076923077" y="198" width="10" height="50" fill="#222" rx="1" stroke="#444" stroke-width="0.5"/>
        <line x1="43.26923076923077" y1="198" x2="43.26923076923077" y2="201" stroke="#111" stroke-width="1.5"/> <!-- pin 1 notch -->
        <rect x="39.26923076923077" y="213" width="8" height="20" fill="#f1c40f" opacity="0.8"/>
      </g>
  <g class="component"><line x1="53.42307692307692" y1="190" x2="53.42307692307692" y2="198" stroke="#bdc3c7" stroke-width="1"/><line x1="55.467032967032964" y1="190" x2="55.467032967032964" y2="198" stroke="#bdc3c7" stroke-width="1"/><line x1="57.51098901098901" y1="190" x2="57.51098901098901" y2="198" stroke="#bdc3c7" stroke-width="1"/><line x1="59.55494505494505" y1="190" x2="59.55494505494505" y2="198" stroke="#bdc3c7" stroke-width="1"/><line x1="61.598901098901095" y1="190" x2="61.598901098901095" y2="198" stroke="#bdc3c7" stroke-width="1"/><line x1="63.64285714285714" y1="190" x2="63.64285714285714" y2="198" stroke="#bdc3c7" stroke-width="1"/><line x1="65.68681318681318" y1="190" x2="65.68681318681318" y2="198" stroke="#bdc3c7" stroke-width="1"/><line x1="67.73076923076923" y1="190" x2="67.73076923076923" y2="198" stroke="#bdc3c7" stroke-width="1"/>
        <rect x="55.57692307692307" y="198" width="10" height="48" fill="#222" rx="1" stroke="#444" stroke-width="0.5"/>
        <line x1="60.57692307692307" y1="198" x2="60.57692307692307" y2="201" stroke="#111" stroke-width="1.5"/> <!-- pin 1 notch -->
        <rect x="56.57692307692307" y="212.4" width="8" height="19.200000000000003" fill="#f1c40f" opacity="0.8"/>
      
      <circle class="led" cx="60.57692307692307" cy="205.2" r="2" fill="#ff9f43" filter="url(#neon-glow)"
        style="animation-delay:0.9s"/>
    </g>
  <g class="component"><line x1="70.73076923076923" y1="190" x2="70.73076923076923" y2="198" stroke="#bdc3c7" stroke-width="1"/><line x1="77.88461538461539" y1="190" x2="77.88461538461539" y2="198" stroke="#bdc3c7" stroke-width="1"/><line x1="85.03846153846153" y1="190" x2="85.03846153846153" y2="198" stroke="#bdc3c7" stroke-width="1"/>
        <path d="M 72.88461538461539,198 L 82.88461538461539,198 L 82.88461538461539,233 C 82.88461538461539,237 72.88461538461539,237 72.88461538461539,233 Z" fill="#111" stroke="#333" stroke-width="0.5"/>
        <rect x="73.88461538461539" y="200" width="8" height="2" fill="#3498db"/>
      </g>
  <g class="component"><line x1="88.03846153846152" y1="190" x2="88.03846153846152" y2="198" stroke="#bdc3c7" stroke-width="1"/><line x1="102.34615384615383" y1="190" x2="102.34615384615383" y2="198" stroke="#bdc3c7" stroke-width="1"/>
        <rect x="92.19230769230768" y="198" width="6" height="30" fill="#dfb887" rx="2" stroke="#7f603c" stroke-width="0.8"/>
        <!-- Resistor Color Bands -->
        <rect x="92.19230769230768" y="204" width="6" height="2" fill="#c0392b"/>
        <rect x="92.19230769230768" y="213" width="6" height="2" fill="#f1c40f"/>
        <rect x="92.19230769230768" y="219" width="6" height="2" fill="#27ae60"/>
      </g>
  <g class="component"><line x1="105.34615384615384" y1="190" x2="105.34615384615384" y2="198" stroke="#bdc3c7" stroke-width="1"/><line x1="119.65384615384615" y1="190" x2="119.65384615384615" y2="198" stroke="#bdc3c7" stroke-width="1"/>
        <rect x="109.5" y="198" width="6" height="30" fill="#dfb887" rx="2" stroke="#7f603c" stroke-width="0.8"/>
        <!-- Resistor Color Bands -->
        <rect x="109.5" y="204" width="6" height="2" fill="#c0392b"/>
        <rect x="109.5" y="213" width="6" height="2" fill="#f1c40f"/>
        <rect x="109.5" y="219" width="6" height="2" fill="#27ae60"/>
      </g>
  
  <g class="component"><line x1="139.96153846153845" y1="190" x2="139.96153846153845" y2="198" stroke="#bdc3c7" stroke-width="1"/><line x1="142.00549450549448" y1="190" x2="142.00549450549448" y2="198" stroke="#bdc3c7" stroke-width="1"/><line x1="144.04945054945054" y1="190" x2="144.04945054945054" y2="198" stroke="#bdc3c7" stroke-width="1"/><line x1="146.0934065934066" y1="190" x2="146.0934065934066" y2="198" stroke="#bdc3c7" stroke-width="1"/><line x1="148.13736263736263" y1="190" x2="148.13736263736263" y2="198" stroke="#bdc3c7" stroke-width="1"/><line x1="150.18131868131866" y1="190" x2="150.18131868131866" y2="198" stroke="#bdc3c7" stroke-width="1"/><line x1="152.22527472527472" y1="190" x2="152.22527472527472" y2="198" stroke="#bdc3c7" stroke-width="1"/><line x1="154.26923076923077" y1="190" x2="154.26923076923077" y2="198" stroke="#bdc3c7" stroke-width="1"/>
        <rect x="142.1153846153846" y="198" width="10" height="45" fill="#222" rx="1" stroke="#444" stroke-width="0.5"/>
        <line x1="147.1153846153846" y1="198" x2="147.1153846153846" y2="201" stroke="#111" stroke-width="1.5"/> <!-- pin 1 notch -->
        <rect x="143.1153846153846" y="211.5" width="8" height="18" fill="#1abc9c" opacity="0.8"/>
      </g>
  
  
  
  
  <g class="component"><line x1="226.5" y1="190" x2="226.5" y2="198" stroke="#bdc3c7" stroke-width="1"/><line x1="233.65384615384616" y1="190" x2="233.65384615384616" y2="198" stroke="#bdc3c7" stroke-width="1"/><line x1="240.80769230769232" y1="190" x2="240.80769230769232" y2="198" stroke="#bdc3c7" stroke-width="1"/>
        <path d="M 228.65384615384616,198 L 238.65384615384616,198 L 238.65384615384616,233 C 238.65384615384616,237 228.65384615384616,237 228.65384615384616,233 Z" fill="#111" stroke="#333" stroke-width="0.5"/>
        <rect x="229.65384615384616" y="200" width="8" height="2" fill="#9b59b6"/>
      </g>
  <g class="component"><line x1="243.8076923076923" y1="190" x2="243.8076923076923" y2="198" stroke="#bdc3c7" stroke-width="1"/><line x1="250.96153846153845" y1="190" x2="250.96153846153845" y2="198" stroke="#bdc3c7" stroke-width="1"/><line x1="258.1153846153846" y1="190" x2="258.1153846153846" y2="198" stroke="#bdc3c7" stroke-width="1"/>
        <path d="M 245.96153846153845,198 L 255.96153846153845,198 L 255.96153846153845,237 C 255.96153846153845,241 245.96153846153845,241 245.96153846153845,237 Z" fill="#111" stroke="#333" stroke-width="0.5"/>
        <rect x="246.96153846153845" y="200" width="8" height="2" fill="#e67e22"/>
      </g>
  <g class="component"><line x1="261.1153846153846" y1="190" x2="261.1153846153846" y2="198" stroke="#bdc3c7" stroke-width="1"/><line x1="263.1593406593406" y1="190" x2="263.1593406593406" y2="198" stroke="#bdc3c7" stroke-width="1"/><line x1="265.2032967032967" y1="190" x2="265.2032967032967" y2="198" stroke="#bdc3c7" stroke-width="1"/><line x1="267.24725274725273" y1="190" x2="267.24725274725273" y2="198" stroke="#bdc3c7" stroke-width="1"/><line x1="269.29120879120876" y1="190" x2="269.29120879120876" y2="198" stroke="#bdc3c7" stroke-width="1"/><line x1="271.3351648351648" y1="190" x2="271.3351648351648" y2="198" stroke="#bdc3c7" stroke-width="1"/><line x1="273.3791208791208" y1="190" x2="273.3791208791208" y2="198" stroke="#bdc3c7" stroke-width="1"/><line x1="275.4230769230769" y1="190" x2="275.4230769230769" y2="198" stroke="#bdc3c7" stroke-width="1"/>
        <rect x="263.2692307692307" y="198" width="10" height="45" fill="#222" rx="1" stroke="#444" stroke-width="0.5"/>
        <line x1="268.2692307692307" y1="198" x2="268.2692307692307" y2="201" stroke="#111" stroke-width="1.5"/> <!-- pin 1 notch -->
        <rect x="264.2692307692307" y="211.5" width="8" height="18" fill="#9b59b6" opacity="0.8"/>
      
      <circle class="led" cx="268.2692307692307" cy="204.75" r="2" fill="#ff9f43" filter="url(#neon-glow)"
        style="animation-delay:2.0s"/>
    </g>
  <g class="component"><line x1="278.4230769230769" y1="190" x2="278.4230769230769" y2="198" stroke="#bdc3c7" stroke-width="1"/><line x1="292.7307692307692" y1="190" x2="292.7307692307692" y2="198" stroke="#bdc3c7" stroke-width="1"/>
        <rect x="282.57692307692304" y="198" width="6" height="23" fill="#dfb887" rx="2" stroke="#7f603c" stroke-width="0.8"/>
        <!-- Resistor Color Bands -->
        <rect x="282.57692307692304" y="202.6" width="6" height="2" fill="#c0392b"/>
        <rect x="282.57692307692304" y="209.5" width="6" height="2" fill="#f1c40f"/>
        <rect x="282.57692307692304" y="214.1" width="6" height="2" fill="#27ae60"/>
      </g>
  
  
  
  
  
  
  
  
  
  <g class="component"><line x1="451.5" y1="190" x2="451.5" y2="198" stroke="#bdc3c7" stroke-width="1"/><line x1="465.8076923076923" y1="190" x2="465.8076923076923" y2="198" stroke="#bdc3c7" stroke-width="1"/>
        <rect x="455.65384615384613" y="198" width="6" height="23" fill="#dfb887" rx="2" stroke="#7f603c" stroke-width="0.8"/>
        <!-- Resistor Color Bands -->
        <rect x="455.65384615384613" y="202.6" width="6" height="2" fill="#c0392b"/>
        <rect x="455.65384615384613" y="209.5" width="6" height="2" fill="#f1c40f"/>
        <rect x="455.65384615384613" y="214.1" width="6" height="2" fill="#27ae60"/>
      </g>
  <g class="component"><line x1="468.80769230769226" y1="190" x2="468.80769230769226" y2="198" stroke="#bdc3c7" stroke-width="1"/><line x1="483.1153846153846" y1="190" x2="483.1153846153846" y2="198" stroke="#bdc3c7" stroke-width="1"/>
        <rect x="472.9615384615384" y="198" width="6" height="30" fill="#dfb887" rx="2" stroke="#7f603c" stroke-width="0.8"/>
        <!-- Resistor Color Bands -->
        <rect x="472.9615384615384" y="204" width="6" height="2" fill="#c0392b"/>
        <rect x="472.9615384615384" y="213" width="6" height="2" fill="#f1c40f"/>
        <rect x="472.9615384615384" y="219" width="6" height="2" fill="#27ae60"/>
      </g>
  
  
  
  
  
  
  
  
  <g class="component"><line x1="624.5769230769231" y1="190" x2="624.5769230769231" y2="198" stroke="#bdc3c7" stroke-width="1"/><line x1="631.7307692307693" y1="190" x2="631.7307692307693" y2="198" stroke="#bdc3c7" stroke-width="1"/><line x1="638.8846153846154" y1="190" x2="638.8846153846154" y2="198" stroke="#bdc3c7" stroke-width="1"/>
        <path d="M 626.7307692307693,198 L 636.7307692307693,198 L 636.7307692307693,233 C 636.7307692307693,237 626.7307692307693,237 626.7307692307693,233 Z" fill="#111" stroke="#333" stroke-width="0.5"/>
        <rect x="627.7307692307693" y="200" width="8" height="2" fill="#1abc9c"/>
      </g>
  <g class="component"><line x1="641.8846153846154" y1="190" x2="641.8846153846154" y2="198" stroke="#bdc3c7" stroke-width="1"/><line x1="643.9285714285714" y1="190" x2="643.9285714285714" y2="198" stroke="#bdc3c7" stroke-width="1"/><line x1="645.9725274725274" y1="190" x2="645.9725274725274" y2="198" stroke="#bdc3c7" stroke-width="1"/><line x1="648.0164835164835" y1="190" x2="648.0164835164835" y2="198" stroke="#bdc3c7" stroke-width="1"/><line x1="650.0604395604396" y1="190" x2="650.0604395604396" y2="198" stroke="#bdc3c7" stroke-width="1"/><line x1="652.1043956043956" y1="190" x2="652.1043956043956" y2="198" stroke="#bdc3c7" stroke-width="1"/><line x1="654.1483516483516" y1="190" x2="654.1483516483516" y2="198" stroke="#bdc3c7" stroke-width="1"/><line x1="656.1923076923076" y1="190" x2="656.1923076923076" y2="198" stroke="#bdc3c7" stroke-width="1"/>
        <rect x="644.0384615384615" y="198" width="10" height="42" fill="#222" rx="1" stroke="#444" stroke-width="0.5"/>
        <line x1="649.0384615384615" y1="198" x2="649.0384615384615" y2="201" stroke="#111" stroke-width="1.5"/> <!-- pin 1 notch -->
        <rect x="645.0384615384615" y="210.6" width="8" height="16.8" fill="#3498db" opacity="0.8"/>
      </g>
  <g class="component"><line x1="659.1923076923076" y1="190" x2="659.1923076923076" y2="198" stroke="#bdc3c7" stroke-width="1"/><line x1="673.4999999999999" y1="190" x2="673.4999999999999" y2="198" stroke="#bdc3c7" stroke-width="1"/>
        <rect x="663.3461538461538" y="198" width="6" height="23" fill="#dfb887" rx="2" stroke="#7f603c" stroke-width="0.8"/>
        <!-- Resistor Color Bands -->
        <rect x="663.3461538461538" y="202.6" width="6" height="2" fill="#c0392b"/>
        <rect x="663.3461538461538" y="209.5" width="6" height="2" fill="#f1c40f"/>
        <rect x="663.3461538461538" y="214.1" width="6" height="2" fill="#27ae60"/>
      </g>
  <g class="component"><line x1="676.5" y1="190" x2="676.5" y2="198" stroke="#bdc3c7" stroke-width="1"/><line x1="677.8006993006993" y1="190" x2="677.8006993006993" y2="198" stroke="#bdc3c7" stroke-width="1"/><line x1="679.1013986013986" y1="190" x2="679.1013986013986" y2="198" stroke="#bdc3c7" stroke-width="1"/><line x1="680.4020979020979" y1="190" x2="680.4020979020979" y2="198" stroke="#bdc3c7" stroke-width="1"/><line x1="681.7027972027972" y1="190" x2="681.7027972027972" y2="198" stroke="#bdc3c7" stroke-width="1"/><line x1="683.0034965034965" y1="190" x2="683.0034965034965" y2="198" stroke="#bdc3c7" stroke-width="1"/><line x1="684.3041958041958" y1="190" x2="684.3041958041958" y2="198" stroke="#bdc3c7" stroke-width="1"/><line x1="685.6048951048951" y1="190" x2="685.6048951048951" y2="198" stroke="#bdc3c7" stroke-width="1"/><line x1="686.9055944055945" y1="190" x2="686.9055944055945" y2="198" stroke="#bdc3c7" stroke-width="1"/><line x1="688.2062937062936" y1="190" x2="688.2062937062936" y2="198" stroke="#bdc3c7" stroke-width="1"/><line x1="689.506993006993" y1="190" x2="689.506993006993" y2="198" stroke="#bdc3c7" stroke-width="1"/><line x1="690.8076923076923" y1="190" x2="690.8076923076923" y2="198" stroke="#bdc3c7" stroke-width="1"/>
        <rect x="676.6538461538462" y="198" width="14" height="59" fill="#1b1c1e" rx="1.5" stroke="#34495e" stroke-width="0.8"/>
        <rect x="678.6538461538462" y="200" width="10" height="55" fill="#0d0e0f" rx="1"/>
        <!-- Core silicon dye -->
        <rect x="681.6538461538462" y="221.6" width="4" height="6" fill="#e67e22" filter="url(#neon-glow)"/>
      
      <circle class="led" cx="683.6538461538462" cy="206.85" r="2" fill="#ff9f43" filter="url(#neon-glow)"
        style="animation-delay:1.7s"/>
    </g>
  <g class="component"><line x1="693.8076923076923" y1="190" x2="693.8076923076923" y2="198" stroke="#bdc3c7" stroke-width="1"/><line x1="695.1083916083916" y1="190" x2="695.1083916083916" y2="198" stroke="#bdc3c7" stroke-width="1"/><line x1="696.4090909090909" y1="190" x2="696.4090909090909" y2="198" stroke="#bdc3c7" stroke-width="1"/><line x1="697.7097902097902" y1="190" x2="697.7097902097902" y2="198" stroke="#bdc3c7" stroke-width="1"/><line x1="699.0104895104895" y1="190" x2="699.0104895104895" y2="198" stroke="#bdc3c7" stroke-width="1"/><line x1="700.3111888111888" y1="190" x2="700.3111888111888" y2="198" stroke="#bdc3c7" stroke-width="1"/><line x1="701.6118881118881" y1="190" x2="701.6118881118881" y2="198" stroke="#bdc3c7" stroke-width="1"/><line x1="702.9125874125874" y1="190" x2="702.9125874125874" y2="198" stroke="#bdc3c7" stroke-width="1"/><line x1="704.2132867132867" y1="190" x2="704.2132867132867" y2="198" stroke="#bdc3c7" stroke-width="1"/><line x1="705.5139860139859" y1="190" x2="705.5139860139859" y2="198" stroke="#bdc3c7" stroke-width="1"/><line x1="706.8146853146852" y1="190" x2="706.8146853146852" y2="198" stroke="#bdc3c7" stroke-width="1"/><line x1="708.1153846153845" y1="190" x2="708.1153846153845" y2="198" stroke="#bdc3c7" stroke-width="1"/>
        <rect x="693.9615384615385" y="198" width="14" height="56" fill="#1b1c1e" rx="1.5" stroke="#34495e" stroke-width="0.8"/>
        <rect x="695.9615384615385" y="200" width="10" height="52" fill="#0d0e0f" rx="1"/>
        <!-- Core silicon dye -->
        <rect x="698.9615384615385" y="220.4" width="4" height="6" fill="#3498db" filter="url(#neon-glow)"/>
      
      <circle class="led" cx="700.9615384615385" cy="206.4" r="2" fill="#ff9f43" filter="url(#neon-glow)"
        style="animation-delay:2.0s"/>
    </g>
  <g class="component"><line x1="711.1153846153845" y1="190" x2="711.1153846153845" y2="198" stroke="#bdc3c7" stroke-width="1"/><line x1="718.2692307692307" y1="190" x2="718.2692307692307" y2="198" stroke="#bdc3c7" stroke-width="1"/><line x1="725.4230769230768" y1="190" x2="725.4230769230768" y2="198" stroke="#bdc3c7" stroke-width="1"/>
        <path d="M 713.2692307692307,198 L 723.2692307692307,198 L 723.2692307692307,233 C 723.2692307692307,237 713.2692307692307,237 713.2692307692307,233 Z" fill="#111" stroke="#333" stroke-width="0.5"/>
        <rect x="714.2692307692307" y="200" width="8" height="2" fill="#1abc9c"/>
      </g>
  <g class="component"><line x1="728.4230769230769" y1="190" x2="728.4230769230769" y2="198" stroke="#bdc3c7" stroke-width="1"/><line x1="735.5769230769231" y1="190" x2="735.5769230769231" y2="198" stroke="#bdc3c7" stroke-width="1"/><line x1="742.7307692307692" y1="190" x2="742.7307692307692" y2="198" stroke="#bdc3c7" stroke-width="1"/>
        <path d="M 730.5769230769231,198 L 740.5769230769231,198 L 740.5769230769231,233 C 740.5769230769231,237 730.5769230769231,237 730.5769230769231,233 Z" fill="#111" stroke="#333" stroke-width="0.5"/>
        <rect x="731.5769230769231" y="200" width="8" height="2" fill="#f1c40f"/>
      </g>
  <g class="component"><line x1="745.7307692307692" y1="190" x2="745.7307692307692" y2="198" stroke="#bdc3c7" stroke-width="1"/><line x1="752.8846153846154" y1="190" x2="752.8846153846154" y2="198" stroke="#bdc3c7" stroke-width="1"/><line x1="760.0384615384614" y1="190" x2="760.0384615384614" y2="198" stroke="#bdc3c7" stroke-width="1"/>
        <path d="M 747.8846153846154,198 L 757.8846153846154,198 L 757.8846153846154,233 C 757.8846153846154,237 747.8846153846154,237 747.8846153846154,233 Z" fill="#111" stroke="#333" stroke-width="0.5"/>
        <rect x="748.8846153846154" y="200" width="8" height="2" fill="#9b59b6"/>
      </g>
  
  <g class="component"><line x1="780.3461538461538" y1="190" x2="780.3461538461538" y2="198" stroke="#bdc3c7" stroke-width="1"/><line x1="787.5" y1="190" x2="787.5" y2="198" stroke="#bdc3c7" stroke-width="1"/><line x1="794.6538461538461" y1="190" x2="794.6538461538461" y2="198" stroke="#bdc3c7" stroke-width="1"/>
        <path d="M 782.5,198 L 792.5,198 L 792.5,237 C 792.5,241 782.5,241 782.5,237 Z" fill="#111" stroke="#333" stroke-width="0.5"/>
        <rect x="783.5" y="200" width="8" height="2" fill="#1abc9c"/>
      </g>
  <g class="component"><line x1="797.6538461538461" y1="190" x2="797.6538461538461" y2="198" stroke="#bdc3c7" stroke-width="1"/><line x1="804.8076923076923" y1="190" x2="804.8076923076923" y2="198" stroke="#bdc3c7" stroke-width="1"/><line x1="811.9615384615383" y1="190" x2="811.9615384615383" y2="198" stroke="#bdc3c7" stroke-width="1"/>
        <path d="M 799.8076923076923,198 L 809.8076923076923,198 L 809.8076923076923,237 C 809.8076923076923,241 799.8076923076923,241 799.8076923076923,237 Z" fill="#111" stroke="#333" stroke-width="0.5"/>
        <rect x="800.8076923076923" y="200" width="8" height="2" fill="#f1c40f"/>
      </g>
  <g class="component"><line x1="814.9615384615385" y1="190" x2="814.9615384615385" y2="198" stroke="#bdc3c7" stroke-width="1"/><line x1="816.2622377622378" y1="190" x2="816.2622377622378" y2="198" stroke="#bdc3c7" stroke-width="1"/><line x1="817.5629370629371" y1="190" x2="817.5629370629371" y2="198" stroke="#bdc3c7" stroke-width="1"/><line x1="818.8636363636364" y1="190" x2="818.8636363636364" y2="198" stroke="#bdc3c7" stroke-width="1"/><line x1="820.1643356643357" y1="190" x2="820.1643356643357" y2="198" stroke="#bdc3c7" stroke-width="1"/><line x1="821.465034965035" y1="190" x2="821.465034965035" y2="198" stroke="#bdc3c7" stroke-width="1"/><line x1="822.7657342657343" y1="190" x2="822.7657342657343" y2="198" stroke="#bdc3c7" stroke-width="1"/><line x1="824.0664335664336" y1="190" x2="824.0664335664336" y2="198" stroke="#bdc3c7" stroke-width="1"/><line x1="825.3671328671329" y1="190" x2="825.3671328671329" y2="198" stroke="#bdc3c7" stroke-width="1"/><line x1="826.6678321678321" y1="190" x2="826.6678321678321" y2="198" stroke="#bdc3c7" stroke-width="1"/><line x1="827.9685314685314" y1="190" x2="827.9685314685314" y2="198" stroke="#bdc3c7" stroke-width="1"/><line x1="829.2692307692307" y1="190" x2="829.2692307692307" y2="198" stroke="#bdc3c7" stroke-width="1"/>
        <rect x="815.1153846153846" y="198" width="14" height="55" fill="#1b1c1e" rx="1.5" stroke="#34495e" stroke-width="0.8"/>
        <rect x="817.1153846153846" y="200" width="10" height="51" fill="#0d0e0f" rx="1"/>
        <!-- Core silicon dye -->
        <rect x="820.1153846153846" y="220" width="4" height="6" fill="#e67e22" filter="url(#neon-glow)"/>
      
      <circle class="led" cx="822.1153846153846" cy="206.25" r="2" fill="#ff9f43" filter="url(#neon-glow)"
        style="animation-delay:1.6s"/>
    </g>
  <g class="component"><line x1="832.2692307692307" y1="190" x2="832.2692307692307" y2="198" stroke="#bdc3c7" stroke-width="1"/><line x1="846.576923076923" y1="190" x2="846.576923076923" y2="198" stroke="#bdc3c7" stroke-width="1"/>
        <rect x="836.4230769230769" y="198" width="6" height="23" fill="#dfb887" rx="2" stroke="#7f603c" stroke-width="0.8"/>
        <!-- Resistor Color Bands -->
        <rect x="836.4230769230769" y="202.6" width="6" height="2" fill="#c0392b"/>
        <rect x="836.4230769230769" y="209.5" width="6" height="2" fill="#f1c40f"/>
        <rect x="836.4230769230769" y="214.1" width="6" height="2" fill="#27ae60"/>
      </g>
  <g class="component"><line x1="849.576923076923" y1="190" x2="849.576923076923" y2="198" stroke="#bdc3c7" stroke-width="1"/><line x1="851.6208791208791" y1="190" x2="851.6208791208791" y2="198" stroke="#bdc3c7" stroke-width="1"/><line x1="853.664835164835" y1="190" x2="853.664835164835" y2="198" stroke="#bdc3c7" stroke-width="1"/><line x1="855.7087912087911" y1="190" x2="855.7087912087911" y2="198" stroke="#bdc3c7" stroke-width="1"/><line x1="857.7527472527472" y1="190" x2="857.7527472527472" y2="198" stroke="#bdc3c7" stroke-width="1"/><line x1="859.7967032967032" y1="190" x2="859.7967032967032" y2="198" stroke="#bdc3c7" stroke-width="1"/><line x1="861.8406593406593" y1="190" x2="861.8406593406593" y2="198" stroke="#bdc3c7" stroke-width="1"/><line x1="863.8846153846152" y1="190" x2="863.8846153846152" y2="198" stroke="#bdc3c7" stroke-width="1"/>
        <rect x="851.7307692307692" y="198" width="10" height="45" fill="#222" rx="1" stroke="#444" stroke-width="0.5"/>
        <line x1="856.7307692307692" y1="198" x2="856.7307692307692" y2="201" stroke="#111" stroke-width="1.5"/> <!-- pin 1 notch -->
        <rect x="852.7307692307692" y="211.5" width="8" height="18" fill="#f1c40f" opacity="0.8"/>
      </g>
  <g class="component"><line x1="866.8846153846154" y1="190" x2="866.8846153846154" y2="198" stroke="#bdc3c7" stroke-width="1"/><line x1="868.1853146853147" y1="190" x2="868.1853146853147" y2="198" stroke="#bdc3c7" stroke-width="1"/><line x1="869.486013986014" y1="190" x2="869.486013986014" y2="198" stroke="#bdc3c7" stroke-width="1"/><line x1="870.7867132867133" y1="190" x2="870.7867132867133" y2="198" stroke="#bdc3c7" stroke-width="1"/><line x1="872.0874125874126" y1="190" x2="872.0874125874126" y2="198" stroke="#bdc3c7" stroke-width="1"/><line x1="873.3881118881119" y1="190" x2="873.3881118881119" y2="198" stroke="#bdc3c7" stroke-width="1"/><line x1="874.6888111888112" y1="190" x2="874.6888111888112" y2="198" stroke="#bdc3c7" stroke-width="1"/><line x1="875.9895104895105" y1="190" x2="875.9895104895105" y2="198" stroke="#bdc3c7" stroke-width="1"/><line x1="877.2902097902098" y1="190" x2="877.2902097902098" y2="198" stroke="#bdc3c7" stroke-width="1"/><line x1="878.590909090909" y1="190" x2="878.590909090909" y2="198" stroke="#bdc3c7" stroke-width="1"/><line x1="879.8916083916083" y1="190" x2="879.8916083916083" y2="198" stroke="#bdc3c7" stroke-width="1"/><line x1="881.1923076923076" y1="190" x2="881.1923076923076" y2="198" stroke="#bdc3c7" stroke-width="1"/>
        <rect x="867.0384615384615" y="198" width="14" height="56" fill="#1b1c1e" rx="1.5" stroke="#34495e" stroke-width="0.8"/>
        <rect x="869.0384615384615" y="200" width="10" height="52" fill="#0d0e0f" rx="1"/>
        <!-- Core silicon dye -->
        <rect x="872.0384615384615" y="220.4" width="4" height="6" fill="#3498db" filter="url(#neon-glow)"/>
      
      <circle class="led" cx="874.0384615384615" cy="206.4" r="2" fill="#ff9f43" filter="url(#neon-glow)"
        style="animation-delay:0.0s"/>
    </g>
  <g class="component"><line x1="884.1923076923076" y1="190" x2="884.1923076923076" y2="198" stroke="#bdc3c7" stroke-width="1"/><line x1="885.4930069930069" y1="190" x2="885.4930069930069" y2="198" stroke="#bdc3c7" stroke-width="1"/><line x1="886.7937062937062" y1="190" x2="886.7937062937062" y2="198" stroke="#bdc3c7" stroke-width="1"/><line x1="888.0944055944055" y1="190" x2="888.0944055944055" y2="198" stroke="#bdc3c7" stroke-width="1"/><line x1="889.3951048951049" y1="190" x2="889.3951048951049" y2="198" stroke="#bdc3c7" stroke-width="1"/><line x1="890.6958041958042" y1="190" x2="890.6958041958042" y2="198" stroke="#bdc3c7" stroke-width="1"/><line x1="891.9965034965035" y1="190" x2="891.9965034965035" y2="198" stroke="#bdc3c7" stroke-width="1"/><line x1="893.2972027972028" y1="190" x2="893.2972027972028" y2="198" stroke="#bdc3c7" stroke-width="1"/><line x1="894.5979020979021" y1="190" x2="894.5979020979021" y2="198" stroke="#bdc3c7" stroke-width="1"/><line x1="895.8986013986013" y1="190" x2="895.8986013986013" y2="198" stroke="#bdc3c7" stroke-width="1"/><line x1="897.1993006993006" y1="190" x2="897.1993006993006" y2="198" stroke="#bdc3c7" stroke-width="1"/><line x1="898.4999999999999" y1="190" x2="898.4999999999999" y2="198" stroke="#bdc3c7" stroke-width="1"/>
        <rect x="884.3461538461538" y="198" width="14" height="90" fill="#1b1c1e" rx="1.5" stroke="#34495e" stroke-width="0.8"/>
        <rect x="886.3461538461538" y="200" width="10" height="86" fill="#0d0e0f" rx="1"/>
        <!-- Core silicon dye -->
        <rect x="889.3461538461538" y="234" width="4" height="6" fill="#1abc9c" filter="url(#neon-glow)"/>
      
      <circle class="led" cx="891.3461538461538" cy="211.5" r="2" fill="#ff9f43" filter="url(#neon-glow)"
        style="animation-delay:0.3s"/>
    </g>

  <!-- Side Power Level LED Bar (Contribution Streak) -->
  
    <g>
      <!-- Housing -->
      <rect x="864" y="100" width="26" height="80" fill="rgba(0,0,0,0.6)" rx="3" stroke="#332a15" stroke-width="1.5"/>
      
      <rect x="868" y="160" width="18" height="8" fill="#2ed573" rx="1"
        filter="url(#neon-glow)" class="power-led" 
        style="animation-delay:0.00s"/>
    
    
      <rect x="868" y="146" width="18" height="8" fill="#2c3e50" rx="1"
         
        style="animation-delay:0.15s"/>
    
    
      <rect x="868" y="132" width="18" height="8" fill="#2c3e50" rx="1"
         
        style="animation-delay:0.30s"/>
    
    
      <rect x="868" y="118" width="18" height="8" fill="#2c3e50" rx="1"
         
        style="animation-delay:0.45s"/>
    
    
      <rect x="868" y="104" width="18" height="8" fill="#2c3e50" rx="1"
         
        style="animation-delay:0.60s"/>
    
      <text x="865" y="192" font-family="monospace" font-size="8" fill="#fff" opacity="0.7">PWR</text>
    </g>
  

  <!-- Glitching sparks if open issues are high -->
  
      <g transform="translate(246, 152)" class="spark-group" style="animation-delay:0.0s">
        <line x1="0" y1="0" x2="-8" y2="-8" stroke="#ff4757" stroke-width="1.2" />
        <line x1="0" y1="0" x2="8" y2="-6" stroke="#ffa502" stroke-width="1.2" />
        <line x1="0" y1="0" x2="-4" y2="8" stroke="#fff" stroke-width="1.5" />
        <circle cx="0" cy="0" r="3" fill="#ff4757" filter="url(#neon-glow)"/>
      </g>
    

      <g transform="translate(392, 134)" class="spark-group" style="animation-delay:0.7s">
        <line x1="0" y1="0" x2="-8" y2="-8" stroke="#ff4757" stroke-width="1.2" />
        <line x1="0" y1="0" x2="8" y2="-6" stroke="#ffa502" stroke-width="1.2" />
        <line x1="0" y1="0" x2="-4" y2="8" stroke="#fff" stroke-width="1.5" />
        <circle cx="0" cy="0" r="3" fill="#ff4757" filter="url(#neon-glow)"/>
      </g>
    

      <g transform="translate(538, 116)" class="spark-group" style="animation-delay:1.4s">
        <line x1="0" y1="0" x2="-8" y2="-8" stroke="#ff4757" stroke-width="1.2" />
        <line x1="0" y1="0" x2="8" y2="-6" stroke="#ffa502" stroke-width="1.2" />
        <line x1="0" y1="0" x2="-4" y2="8" stroke="#fff" stroke-width="1.5" />
        <circle cx="0" cy="0" r="3" fill="#ff4757" filter="url(#neon-glow)"/>
      </g>
    

      <g transform="translate(684, 98)" class="spark-group" style="animation-delay:2.1s">
        <line x1="0" y1="0" x2="-8" y2="-8" stroke="#ff4757" stroke-width="1.2" />
        <line x1="0" y1="0" x2="8" y2="-6" stroke="#ffa502" stroke-width="1.2" />
        <line x1="0" y1="0" x2="-4" y2="8" stroke="#fff" stroke-width="1.5" />
        <circle cx="0" cy="0" r="3" fill="#ff4757" filter="url(#neon-glow)"/>
      </g>
    

  <!-- HUD Panel -->
  
  <g>
    <rect x="8" y="8" width="220" height="22" rx="4" fill="rgba(0,0,0,0.6)" stroke="#332a15" stroke-width="1"/>
    <text x="14" y="22" font-family="monospace" font-size="10" fill="#fff" font-weight="bold">
      ⚡ Dasmat13's Core · 386 units
    </text>
  </g>
  <g>
    <rect x="650" y="8" width="200" height="22" rx="4" fill="rgba(0,0,0,0.6)" stroke="#332a15" stroke-width="1"/>
    <text x="656" y="22" font-family="monospace" font-size="10" fill="#f1c40f" font-weight="bold">
      CLK: 102 MHz · STREAK: 7d
    </text>
  </g>

  <style>
    /* Pulsing current trace flow */
    .pulse-trace {
      stroke-dasharray: 40, 160;
      stroke-dashoffset: 200;
      animation: trace-flow infinite linear;
    }
    @keyframes trace-flow {
      to { stroke-dashoffset: 0; }
    }

    /* Flashing status indicator LEDs */
    .led {
      animation: led-blink 1.8s ease-in-out infinite alternate;
    }
    @keyframes led-blink {
      0%, 30%   { opacity: 0.15; filter: brightness(0.5); }
      70%, 100% { opacity: 1; filter: brightness(1.6); }
    }

    /* Power bar LED segment breath animation */
    .power-led {
      animation: power-breath 2.5s ease-in-out infinite alternate;
    }
    @keyframes power-breath {
      0%   { filter: brightness(0.8) drop-shadow(0 0 1px #f1c40f); }
      100% { filter: brightness(1.3) drop-shadow(0 0 4px #f1c40f); }
    }

    /* Glitch spark explosion */
    .spark-group {
      opacity: 0;
      animation: glitch-spark 2.5s ease-in-out infinite;
      transform-origin: center;
    }
    @keyframes glitch-spark {
      0%, 90% { opacity: 0; transform: scale(0.3); }
      92%     { opacity: 1; transform: scale(1.2); }
      94%     { opacity: 0.5; transform: scale(0.9); }
      95%     { opacity: 1; transform: scale(1.4); }
      98%, 100% { opacity: 0; transform: scale(0.5); }
    }
  </style>
</svg>